<?xml version="1.0" encoding="utf-8"?>

<svg version="1.1" id="Calque_1" xmlns="http://www.w3.org/2000/svg" xmlns:xlink="http://www.w3.org/1999/xlink" x="0px" y="0px"
	 viewBox="0 0 53.5 78.4" enable-background="new 0 0 53.5 78.4" xml:space="preserve">
<path fill="#FFFFFF" d="M45.9,13.7c-1.8-2.8-4.2-5.2-7.3-7C34.9,4.5,29.6,3,24,3.9c-7,1-12,5-15.1,9.9c-1.9,3-3.1,6.5-3.3,11
	C5.5,29.4,6.9,33,8.7,35.9c0.9,1.5,1.6,3.1,2.5,4.6C14,45,17,49.1,19.5,53.7c3.4,6.1,6.4,12.7,7.9,20.6c2.4-12,7.7-20.9,13.3-29.5
	c1.9-3,3.9-5.8,5.3-8.9c0.7-1.6,1.6-3.1,2.2-4.9c0.6-1.8,0.9-4,0.9-6.2C49.2,20.2,47.8,16.7,45.9,13.7z M27.4,31.9
	c-4,0-7.3-3.3-7.3-7.3s3.3-7.3,7.3-7.3s7.3,3.3,7.3,7.3S31.4,31.9,27.4,31.9z"/>
</svg>
