<?xml version="1.0" encoding="utf-8"?>
<!-- Generator: Adobe Illustrator 17.1.0, SVG Export Plug-In . SVG Version: 6.00 Build 0)  -->
<!DOCTYPE svg PUBLIC "-//W3C//DTD SVG 1.1//EN" "http://www.w3.org/Graphics/SVG/1.1/DTD/svg11.dtd">
<svg version="1.1" xmlns="http://www.w3.org/2000/svg" xmlns:xlink="http://www.w3.org/1999/xlink" x="0px" y="0px"
	 viewBox="0 0 4252 3543.3" enable-background="new 0 0 4252 3543.3" xml:space="preserve">
<g id="map">
	 <image id="antartic" xlink:href="images/mapping.png" x="0" y="0" height="500%" width="500%"/>
	<rect id="start" x="3313.7" y="267.9" fill="#8EF8C2" width="3.6" height="3.6"/>
	<path id="place" fill="#FFFFFF" d="M45.9,13.7c-1.8-2.8-4.2-5.2-7.3-7C34.9,4.5,29.6,3,24,3.9c-7,1-12,5-15.1,9.9c-1.9,3-3.1,6.5-3.3,11
	C5.5,29.4,6.9,33,8.7,35.9c0.9,1.5,1.6,3.1,2.5,4.6C14,45,17,49.1,19.5,53.7c3.4,6.1,6.4,12.7,7.9,20.6c2.4-12,7.7-20.9,13.3-29.5
	c1.9-3,3.9-5.8,5.3-8.9c0.7-1.6,1.6-3.1,2.2-4.9c0.6-1.8,0.9-4,0.9-6.2C49.2,20.2,47.8,16.7,45.9,13.7z M27.4,31.9
	c-4,0-7.3-3.3-7.3-7.3s3.3-7.3,7.3-7.3s7.3,3.3,7.3,7.3S31.4,31.9,27.4,31.9z"/>
	<path id="boat" fill="#99F9C8" d="M-12,10.6C-12.1,38.6,0,51.7,0,51.7s12.1-13.3,12-41.2l0.2-62.3H0h-12.1L-12,10.6z"/>
	<rect id="end" x="3203.9" y="204.6" fill="#8EF8C2" width="3.6" height="3.6"/>
	<path id="path" fill="none" stroke="#8EF8C2" stroke-width="2" stroke-linecap="round" stroke-miterlimit="10" d="M3316,269.9
		c0,0,217.1,152.3,77.4,666.8c-74.6,297,81.7,201.8,129.5,255c200.3,223.2-393.1,817.6-690.1,981.1s-569.9,214.6-779.8,544.5
		s-851.8,15-956.8-590.9s-311.9-941.8-311.9-941.8s-121.4-134.9,146.6-386.9c280.6-263.9,993.2-945.8,2275.5-591.4"/>
</g>
</svg>
