<?xml version="1.0" encoding="utf-8"?>
<!-- Generator: Adobe Illustrator 17.1.0, SVG Export Plug-In . SVG Version: 6.00 Build 0)  -->
<!DOCTYPE svg PUBLIC "-//W3C//DTD SVG 1.1//EN" "http://www.w3.org/Graphics/SVG/1.1/DTD/svg11.dtd">
<svg version="1.1" id="Calque_1" xmlns="http://www.w3.org/2000/svg" xmlns:xlink="http://www.w3.org/1999/xlink" x="0px" y="0px"
	 viewBox="0 0 114 25.7" enable-background="new 0 0 114 25.7" xml:space="preserve">
<path fill="#9BF9C9" d="M27.4,21.4c0-0.3-0.4-0.5,0.1-0.7c1.7-0.6,3.3,0.1,5-0.4l0.1-0.5c1.4,0,2.9,0,4.3,0c2.7-0.5,5.3-1,7.9-1.5
	c-0.1-0.2-0.1-0.3,0.1-0.4c1.1-0.3,2.6-0.3,4.2-0.5c0.2-0.1,0.5-0.1,0.7-0.2c0.2-0.1,0.2-0.3,0.2-0.4c0.7-0.1,1.4-0.1,2-0.1
	c7.7-1.8,15.5-3.5,24.1-4.8c1.8-0.5,3.6-0.9,5.4-1.1c1.3-0.1,2.8,0,4.3,0.1c1.5,0.1,2.9,0.3,4.2,0.4c-0.1-0.8,1.4-1.3,2.8-1.7
	c1.4-0.5,2.8-0.9,2.2-1.8c0.9,0.1,2,0.3,2.8,0.4c0.9,0.1,1.6,0.2,1.7,0c0.7-1.2,2.3-2.7,7.6-1.9c0.5,0.1,1.1,0.3,1.6,0.6l0.8,0.4
	c0.3,0.2,0.6,0.3,0.8,0.5c1.1,0.6,1.9,1.1,2.4,1.2c0.3,0,0.3-0.1,0.2-0.3c-0.1-0.2-0.4-0.5-0.6-0.7c-0.5-0.5-1.1-1.1-0.4-1
	c-3.8-2-7.5-3.1-11.1-3.8c-3.6-0.8-7.1-1.1-10.6-1.4c-7-0.4-13.8-0.2-20.7,0.1c-2.3,0.4-11.3,1.3-20.6,2.5C39.6,5.7,30,7.3,26,7.8
	L25.3,8c-4.3,0.7-9.5,1.7-13,3.1c-1.6,0.7-3.2,1.5-4.7,2.3c0.8,0.1,1.6,0.2,2.3,0.3c-1.7,0.3-3.4,0.6-4,1.1
	c-3.5,1.5-1.2,1.8,0.4,2.6c1.1,0.3-0.1,1.3,1.6,1.4c-1.1,0.2-1.7,0.3-2.8,0.5c0,0.5,3.4-1,2.8-0.1c-1.1,0.1-2.3,0.6-3.4,0.8
	c0.5,0.5,3.9-0.6,3.9,0c-0.6,0.3-3.3-0.1-3.4,0.7c0,0.2,1.1-0.1,1.7-0.2c-3.4,1-5.1,2.1-1.8,2.2C3.7,23,2.1,23,1,23.4c0,0,0,0,0,0
	c0.5-0.1,1.6-0.2,2.1-0.3l-1.9,0.4c0.1,0.1,0.3,0.2,0.4,0.2c0.5,0,1-0.1,1.5-0.2l-1.3,0.3C2.1,24,2.6,24.1,3,24.3
	c1.6,0.1,3.3,0.5,4.1,0.4C13.9,23.5,20.7,22.4,27.4,21.4z"/>
</svg>
