<?xml version="1.0" encoding="utf-8"?>
<!-- Generator: Adobe Illustrator 17.1.0, SVG Export Plug-In . SVG Version: 6.00 Build 0)  -->
<!DOCTYPE svg PUBLIC "-//W3C//DTD SVG 1.1//EN" "http://www.w3.org/Graphics/SVG/1.1/DTD/svg11.dtd">
<svg version="1.1" id="Calque_1" xmlns="http://www.w3.org/2000/svg" xmlns:xlink="http://www.w3.org/1999/xlink" x="0px" y="0px"
	 viewBox="0 0 299 66" enable-background="new 0 0 299 66" xml:space="preserve">
<path fill="#0065FF" d="M62.2,38.9c5.3,0.5,10-1.1,17.2-4c0.8-0.3,1.6-0.8,2.6-1.1l3.2-1.1c1.9-0.8,4.5-1.3,6.9-1.6
	c2.4-0.3,5-0.3,7.4,0.3c1.3,0.3,2.6,0.5,4,1.1c1.3,0.5,2.6,1.1,3.7,1.6c0.3,0.3,0.5,0.5,0.8,0.8c0,0.3,0.3,0,0.3,0l0.5-0.5l0.3-0.3
	l1.9-1.6c1.6-1.3,3.2-2.1,5-3.2c1.6-1.1,3.4-1.9,5-2.6l2.6-1.3c0.8-0.3,1.9-0.8,2.6-1.1c7.1-2.6,14.5-4.3,21.7-4.3
	c8.7-0.3,16.7,1.3,23.3,1.3c6.3,0.3,12.2-2.4,13.5-5.3c-0.3,0.3,0,0,0,0l0.3-0.5l0.3-0.5c0.3-0.3,0.3-0.8,0.8-0.8
	c0.3-0.5,0.8-1.1,1.1-1.6c0.8-1.1,1.9-1.9,2.9-2.4c0.5-0.3,1.1-0.5,1.6-1.1c0.5-0.3,1.1-0.5,1.6-0.8c1.1-0.5,1.9-0.8,2.6-1.1
	c3.4-1.1,6.6-1.6,9.5-1.9c6.1-0.5,11.9-0.3,17.7,0.5c11.7,1.6,22.7,5.6,32.8,12.4c-0.5,0.5-3.7-0.3-1.3,1.9c5,4.3,6.9,7.4,7.7,9
	c0.5,1.6,0,2.1-0.5,2.6c-0.3,0.3-1.9-1.6-3.2-2.9s-2.6-2.4-1.6-1.1c-3.4-3.2-8.7-6.3-12.2-8c-3.4-1.6-5-1.9-1.1,0.3
	c1.3,1.1,4.5,2.6,7.7,5c3.2,2.1,5.8,4.8,6.3,6.3c1.3,2.9-3.7-0.5-2.4,2.4c1.1,1.1,2.4,2.4,3.7,4.3c1.3,1.6,2.4,3.4,3.2,4.8
	c1.1,2.9-3.4-1.3-1.9,1.1c1.1,2.1,2.6,4.5,4.8,6.9c2.1,2.4,5,4.8,9,6.1c2.1,0.5,4.3,0.8,6.3,0.8c2.1,0,4-0.3,5.6-0.8
	c3.4-0.8,6.3-1.9,8.7-2.6c0,0.3,0.8,0.5,1.1,0.8c0,0.3,0,0.3-0.5,0.5c-0.5,0.3-1.1,0.5-2.6,1.1c-2.1,0.8-4.5,1.9-7.7,2.4
	c-2.9,0.5-6.9,0.8-10.6-0.3c-3.4-1.1-6.6-3.2-9-5.3c-2.4-2.1-4.3-4.5-5.6-6.6c-0.8-1.1-1.6-2.1-2.1-3.2c-0.5-0.8-1.1-1.6-1.6-2.4
	c-1.3-1.6-2.4-2.9-4-4.3c-2.9-2.6-6.1-5-9.8-6.9c-7.1-4-15.6-6.1-24.1-6.9c-4.3-0.5-8.5-0.5-12.4,0c-1.9,0.3-3.7,0.5-5.3,1.1
	l-0.8,0.3l0,0c0,0,0,0,0,0.3c-1.3,2.4-3.4,4.8-5.6,6.3c-2.1,1.9-4.5,2.9-6.6,4c-4.5,1.9-9.3,2.9-13.8,2.9
	c-8.7,0.3-16.4-1.6-22.7-1.9c-6.3-0.3-12.2,0.5-18,2.6c-1.3,0.5-2.9,1.1-4.3,1.9c-1.4,0.8-2.9,1.3-4,2.1c-1.3,0.8-2.6,1.6-3.7,2.4
	l-2.1,1.6c-1.6,1.3-2.6,2.6-4.3,4l-7.7-1.3l-7.7-1.3c-0.5-0.3-0.8-0.5-1.3-0.5c-0.5-0.3-1.1-0.3-1.6-0.3c-1.3-0.3-2.6,0-4,0
	c-0.3,0-0.5,0-1.1,0.3c-0.3,0-0.8,0.3-1.3,0.3l-2.4,0.8c-0.8,0.3-1.9,0.8-2.9,1.1L82,51l-3.4,1.3l-1.9,0.5c-0.5,0.3-1.3,0.3-2.1,0.5
	l-4,0.8c-1.3,0.3-2.9,0.3-4.3,0.3c-1.3,0-2.9,0-4.3,0c-1.3-0.3-2.9-0.3-4.3-0.5c-2.6-0.5-5.3-1.1-7.4-2.1c-4.8-1.6-9-3.7-13-5.6
	c-4-1.9-7.4-3.7-10.8-5c-3.4-1.3-6.9-2.1-10-2.1c-1.6,0-3.2,0-4.5,0.3s-2.4,0.5-3.4,1.1c-1.3,0.5-1.9,1.1-2.4,1.1
	c-0.3,0.3-0.5,0.3-0.5,0s0-0.5,0.3-0.8c0.3-1.1,1.9-3.2,5.3-4.5c-2.1,0.8-2.4-0.3-4,1.1c-0.3-0.5,0.3-1.6,2.4-2.9s6.3-2.4,11.9-1.6
	c-2.6-0.5-5.6-0.8-8.2-0.5c-2.6,0,0-1.1-0.3-1.9c2.9-0.3,5.8,0,5.8-0.3c0-0.3,0-1.1,0.3-1.3c-1.6-0.3-4-0.3-6.1,0
	c-2.4,0-4.8,0.8-6.1,1.3c2.9-1.1,6.1-1.3,6.1-1.6c0-0.3,0-1.1,0-1.3c3.2-0.5,7.4,0,11.4,0.8s7.4,2.4,10.6,3.4l0.5-1.1
	c-2.9-1.3-6.6-2.9-10.6-3.7s-8.2-1.1-11.7-0.8c3.4-0.5,3.4-0.8,3.4-1.6c5.3,0,10,1.3,14.8,2.9c4.8,1.6,9,4,13,5.3
	c-2.6-1.3-5.3-2.6-8.2-4c3.4,0.5,8.2,2.9,13,5C53.8,36.8,58.8,38.6,62.2,38.9z"/>
</svg>
