<?xml version="1.0" encoding="utf-8"?>
<!-- Generator: Adobe Illustrator 16.0.0, SVG Export Plug-In . SVG Version: 6.00 Build 0)  -->
<!DOCTYPE svg PUBLIC "-//W3C//DTD SVG 1.1//EN" "http://www.w3.org/Graphics/SVG/1.1/DTD/svg11.dtd">
<svg version="1.1" id="Calque_1" xmlns="http://www.w3.org/2000/svg" xmlns:xlink="http://www.w3.org/1999/xlink" x="0px" y="0px"
	 width="356.5px" height="54px" viewBox="-743.555 -11.86 356.5 54" enable-background="new -743.555 -11.86 356.5 54"
	 xml:space="preserve">
<g>
	<path fill="#FFFFFF" d="M-723.69,9.326c-1.362-1.878-3.898-2.771-6.246-2.771c-2.677,0-5.213,1.268-5.213,3.616
		c0,1.878,2.395,3.1,6.199,3.334c6.246,0.469,8.546,3.005,8.546,6.574c0,4.415-4.32,6.668-9.017,6.668
		c-3.663,0-7.608-1.409-9.674-4.273l2.864-2.02c1.644,1.973,4.556,3.005,7.091,3.005c2.818,0,5.307-1.315,5.307-3.475
		c0-2.113-1.878-2.865-5.823-3.24c-5.729-0.517-8.97-2.912-8.923-6.481c0-3.992,4.086-6.81,8.876-6.81
		c4.132,0,6.763,1.269,8.406,3.945L-723.69,9.326z"/>
	<path fill="#FFFFFF" d="M-699.176,9.795c-1.314-1.456-2.912-2.301-5.542-2.301c-10.097,0-9.956,16.108,0.423,16.108
		c1.878,0,3.992-0.893,5.494-2.583l2.301,1.738c-1.737,2.583-5.071,4.085-7.748,4.085c-14.934,0-14.887-22.635-0.329-22.635
		c1.69,0,5.494,0.376,7.89,3.663L-699.176,9.795z"/>
	<path fill="#FFFFFF" d="M-685.838,7.729c1.831-2.63,5.963-3.24,7.842-3.24c0.329,0,0.658,0,0.892,0.047v3.381h0.517
		c-4.508,0-9.251,0.188-9.251,7.983v10.472h-3.241V4.77h3.241V7.729z"/>
	<path fill="#FFFFFF" d="M-662.498,26.748c-7.232,0-10.895-5.682-10.895-11.317c0-5.682,3.663-11.364,10.848-11.364
		c7.138,0,10.754,5.635,10.754,11.318C-651.791,21.066-655.454,26.748-662.498,26.748z M-662.545,23.461
		c4.884,0,7.514-4.085,7.514-8.124c0-3.992-2.583-7.983-7.514-7.983c-5.025,0-7.655,4.039-7.655,8.031
		C-670.199,19.422-667.57,23.461-662.545,23.461z"/>
	<path fill="#FFFFFF" d="M-646.624,26.372V-5.514h3.381v31.887H-646.624z"/>
	<path fill="#FFFFFF" d="M-636.528,26.372V-5.514h3.381v31.887H-636.528z"/>
	<path fill="#FFFFFF" d="M-615.864,8.152V4.818h3.24v-5.495h3.241v5.495h3.991v3.334h-3.991v18.221h-3.241V8.152H-615.864z"/>
	<path fill="#FFFFFF" d="M-590.269,26.748c-7.232,0-10.896-5.682-10.896-11.317c0-5.682,3.663-11.364,10.849-11.364
		c7.138,0,10.754,5.635,10.754,11.318C-579.562,21.066-583.225,26.748-590.269,26.748z M-590.316,23.461
		c4.884,0,7.514-4.085,7.514-8.124c0-3.992-2.583-7.983-7.514-7.983c-5.025,0-7.655,4.039-7.655,8.031
		C-597.971,19.422-595.341,23.461-590.316,23.461z"/>
	<path fill="#FFFFFF" d="M-559.556,8.057c1.925-2.583,5.729-3.333,7.655-3.287c5.494,0,8.171,2.818,8.171,8.923v12.679h-3.804
		v-12.21c0-2.818,0-6.199-5.4-6.199c-4.086,0-6.622,2.817-6.622,5.307v13.102h-3.71V4.676h3.71V8.057z"/>
	<path fill="#FFFFFF" d="M-521.141,23.461c-1.831,2.301-4.649,3.146-7.091,3.146c-5.541,0-10.379-4.696-10.285-10.707
		c0.094-6.481,5.072-11.13,10.191-11.13c2.536,0,4.884,0.846,7.185,2.958V4.77h3.381v21.602h-3.381V23.461z M-527.762,23.226
		c3.991,0,6.762-3.287,6.762-7.467c0-3.381-1.878-7.655-6.762-7.655c-4.509,0-7.327,3.288-7.327,7.749
		C-535.089,20.69-531.379,23.226-527.762,23.226z"/>
	<path fill="#FFFFFF" d="M-510.058,4.77l6.95,17.751l6.904-17.751h3.616l-8.782,21.602h-3.616l-8.782-21.602H-510.058z"/>
	<path fill="#FFFFFF" d="M-489.629-1.523c0-1.549,1.174-2.583,2.489-2.583c1.362,0,2.442,1.174,2.442,2.583
		c0,1.55-1.127,2.536-2.442,2.536S-489.629,0.027-489.629-1.523z M-488.783,26.372V4.724h3.381v21.648H-488.783z"/>
	<path fill="#FFFFFF" d="M-462.249,23.461c-0.892,1.127-3.851,3.053-7.044,3.053c-6.81,0-10.66-4.602-10.66-10.895
		c0-5.964,4.367-11.224,10.566-11.224c3.006,0,5.354,1.127,7.139,3.381V4.724h3.334v21.695c0,7.373-5.025,9.721-10.332,9.721
		c-4.227,0-7.608-2.16-9.251-4.556l2.77-1.925c1.55,2.348,4.696,3.24,6.81,3.24c6.48,0,6.668-4.837,6.668-6.997V23.461z
		 M-476.714,15.759c0,4.602,3.381,7.561,7.373,7.561c4.508,0,7.373-3.475,7.373-7.561c0-4.837-2.771-7.983-7.326-7.983
		C-473.943,7.776-476.714,11.016-476.714,15.759z"/>
	<path fill="#FFFFFF" d="M-436.138,23.461c-1.832,2.301-4.649,3.146-7.091,3.146c-5.541,0-10.378-4.696-10.284-10.707
		c0.094-6.481,5.072-11.13,10.19-11.13c2.536,0,4.884,0.846,7.185,2.958V4.77h3.381v21.602h-3.381V23.461z M-442.76,23.226
		c3.992,0,6.763-3.287,6.763-7.467c0-3.381-1.879-7.655-6.763-7.655c-4.508,0-7.326,3.288-7.326,7.749
		C-450.086,20.69-446.376,23.226-442.76,23.226z"/>
	<path fill="#FFFFFF" d="M-427.262,8.152V4.818h3.24v-5.495h3.241v5.495h3.992v3.334h-3.992v18.221h-3.241V8.152H-427.262z"/>
	<path fill="#FFFFFF" d="M-391.992,20.268c-0.751,3.193-3.757,6.527-9.017,6.527c-6.904,0-11.13-4.978-11.13-11.318
		c0-6.246,4.132-11.411,10.613-11.411c6.951,0,10.332,6.011,10.332,12.351v0.422h-17.516c0.141,3.616,3.334,6.762,7.654,6.762
		c2.63,0,4.931-1.315,5.964-3.334H-391.992z M-394.529,13.834c-0.093-3.005-2.536-6.621-6.809-6.621
		c-3.804,0-6.951,2.817-7.279,6.621H-394.529z"/>
</g>
</svg>
