<?xml version="1.0" standalone="no"?>
<!DOCTYPE svg PUBLIC "-//W3C//DTD SVG 1.1//EN" "http://www.w3.org/Graphics/SVG/1.1/DTD/svg11.dtd" >
<svg xmlns="http://www.w3.org/2000/svg">
<metadata></metadata>
<defs>
<font id="tautzregular" horiz-adv-x="1792" >
<font-face units-per-em="2048" ascent="1499" descent="-549" />
<missing-glyph horiz-adv-x="692" />
<glyph horiz-adv-x="0" />
<glyph horiz-adv-x="682" />
<glyph unicode=" "  horiz-adv-x="692" />
<glyph unicode="&#x09;" horiz-adv-x="692" />
<glyph unicode="&#xa0;" horiz-adv-x="692" />
<glyph unicode="!" horiz-adv-x="411" d="M102 1434h207l-71 -1098h-62zM104 80q0 41 30 70.5t73 29.5q41 0 69.5 -29.5t28.5 -70.5t-28.5 -70.5t-69.5 -29.5q-43 0 -73 29.5t-30 70.5z" />
<glyph unicode="&#x22;" horiz-adv-x="671" d="M102 954l29 480h172l-182 -480h-19zM369 954l28 480h172l-182 -480h-18z" />
<glyph unicode="#" horiz-adv-x="1167" d="M102 463l25 96h219l82 301h-221l26 94h220l125 480h104l-127 -480h186l127 480h103l-125 -480h219l-27 -94h-219l-80 -301h219l-24 -96h-219l-123 -463h-103l123 463h-188l-121 -463h-104l123 463h-220zM451 559h186l82 301h-189z" />
<glyph unicode="$" horiz-adv-x="1243" d="M102 127v311h7q171 -288 401 -348l51 584l-29 8q-413 108 -413 393v19q3 145 125 252q123 108 336 108l51 -2l10 125h59l-12 -129q133 -18 350 -92v-279h-6q-135 225 -352 271l-43 -496l29 -8q240 -64 357.5 -174t117.5 -285v-14q0 -165 -144 -279q-139 -112 -372 -112 q-7 0 -33 1t-33 1l-10 -125h-60l13 133q-153 26 -400 137zM289 1116q0 -93 68.5 -148t222.5 -100l41 488l-41 2q-152 0 -224 -72q-67 -70 -67 -156v-14zM569 80q50 -4 56 -4q158 0 249 72.5t93 181.5v12q0 120 -83.5 193t-262.5 124z" />
<glyph unicode="%" horiz-adv-x="1609" d="M102 1106v10q0 150 99 244q101 94 239 94q139 0 240 -94q100 -93 100 -244v-10q0 -151 -100 -244q-101 -94 -240 -94q-138 0 -239 94q-99 94 -99 244zM240 1102q0 -120 55.5 -192t144.5 -72q91 0 147 71.5t56 192.5v18q0 121 -56 192.5t-147 71.5q-89 0 -144.5 -72 t-55.5 -192v-18zM272 0l942 1434h121l-942 -1434h-121zM829 317v11q0 149 99 243q103 95 239 95q137 0 240 -95q100 -93 100 -243v-11q0 -150 -100 -243q-101 -94 -240 -94q-138 0 -239 94q-99 94 -99 243zM967 313q0 -120 55.5 -192t144.5 -72q91 0 147 71.5t56 192.5v19 q0 121 -56 192.5t-147 71.5q-89 0 -144.5 -72t-55.5 -192v-19z" />
<glyph unicode="&#x26;" horiz-adv-x="1601" d="M133 397v9q0 129 77 231.5t228 144.5q-100 41 -160.5 124.5t-60.5 166.5v12q0 150 129 258q129 111 363 111q222 0 417 -98v-279h-6q-53 133 -164 207t-245 74q-160 0 -236 -88q-76 -85 -76 -193v-18q0 -28 7 -58.5t26 -65t48 -61.5t78 -45t110 -18h114l-73 -96h-37 q-96 0 -170 -33t-111 -86q-61 -96 -61 -186v-15q0 -139 112 -229q116 -90 281 -90q176 0 281.5 83.5t105.5 215.5q1 78 -54.5 132t-140.5 60q-121 -46 -194.5 -108.5t-104.5 -161.5l-6 -2q24 353 414 506l78 30q106 39 166 72q66 38 109 88.5t73 130.5h6q-21 -314 -334 -471 q76 -30 120 -95.5t44 -160.5q0 -184 -178 -301q-176 -114 -428 -114q-229 0 -387 116q-160 118 -160 301zM733 512l76 39q-23 -6 -76 -39z" />
<glyph unicode="'" horiz-adv-x="405" d="M102 954l29 480h172l-182 -480h-19z" />
<glyph unicode="(" horiz-adv-x="751" d="M102 612v17q1 158 50 304.5t133 254.5q154 204 364 321v-6q-163 -141 -254 -370q-96 -241 -96 -504v-17q0 -262 96 -503q92 -231 254 -371v-6q-206 114 -364 319q-84 112 -133 257.5t-50 303.5z" />
<glyph unicode=")" horiz-adv-x="751" d="M102 -262q162 140 254 371q97 243 97 503v17q0 261 -97 504q-91 229 -254 370v6q212 -118 365 -321q86 -107 134 -253t48 -306v-17q0 -159 -48 -305t-134 -256q-158 -204 -365 -319v6z" />
<glyph unicode="*" horiz-adv-x="733" d="M102 1206v8l166 50l-49 168l6 2l142 -119l141 119l6 -2l-49 -168l166 -50v-8l-166 -49l49 -168l-6 -2l-141 119l-142 -119l-6 2l49 168z" />
<glyph unicode="+" horiz-adv-x="962" d="M102 528v97h332v331h96v-331h330v-97h-330v-331h-96v331h-332z" />
<glyph unicode="," horiz-adv-x="464" d="M102 -260q157 121 160 252q-12 -6 -29 -6q-44 0 -71 26t-27 68q0 39 28 67.5t70 28.5q61 0 95 -41t34 -104q0 -94 -68.5 -172t-191.5 -125v6z" />
<glyph unicode="-" horiz-adv-x="647" d="M102 438v94h443v-94h-443z" />
<glyph unicode="." horiz-adv-x="405" d="M102 80q0 41 30 70.5t73 29.5q41 0 69.5 -29.5t28.5 -70.5t-28.5 -70.5t-69.5 -29.5q-43 0 -73 29.5t-30 70.5z" />
<glyph unicode="/" horiz-adv-x="907" d="M102 0l592 1434h111l-592 -1434h-111z" />
<glyph unicode="0" horiz-adv-x="1505" d="M133 700v33q0 322 174 520q177 201 445 201q267 0 444 -201q176 -200 176 -520v-33q0 -322 -176 -522q-174 -198 -444 -198q-271 0 -445 198t-174 522zM330 696q0 -277 110 -448q114 -172 312 -172q199 0 313 172q113 171 113 448v41q0 278 -113 449q-114 172 -313 172 q-198 0 -312 -172q-110 -171 -110 -449v-41z" />
<glyph unicode="1" horiz-adv-x="937" d="M186 0v6l189 82v1194h-189v6l367 166h6v-1366l189 -82v-6h-562z" />
<glyph unicode="2" horiz-adv-x="1241" d="M102 0v6q349 313 519 502q180 198 235 311t55 230v8q0 131 -80.5 216t-228.5 85q-247 0 -430 -281h-6v279q79 29 147 51q55 17 138 32t151 15q223 0 363 -119q143 -119 143 -305v-10q-3 -172 -147 -342q-141 -166 -592 -543h604l129 219h6v-354h-1006z" />
<glyph unicode="3" horiz-adv-x="1277" d="M102 117v301h7q85 -155 217.5 -248.5t285.5 -93.5q161 0 265 90q102 88 102 229v15q0 33 -8 69t-32 79.5t-61 77t-101 56.5t-146 23h-127v96h135q61 0 110 18t77.5 44.5t47.5 61t26 65t7 59.5v18q0 106 -78 193q-76 88 -233 88q-132 0 -252 -73t-201 -208h-6v279 q276 98 463 98q235 0 361 -111q129 -108 129 -258v-12q0 -82 -60.5 -166t-159.5 -125q151 -42 228.5 -144.5t77.5 -231.5v-9q0 -188 -158 -303q-156 -114 -406 -114q-128 0 -243 32.5t-267 104.5z" />
<glyph unicode="4" horiz-adv-x="1296" d="M45 307v6l807 1121h121v-1031h188v-96h-188v-219l188 -82v-6h-561v6l188 82v219h-743zM236 403h555v775z" />
<glyph unicode="5" horiz-adv-x="1277" d="M102 117v301h7q79 -146 215 -246q137 -96 282 -96q158 0 250 108q92 109 92 248v14q0 144 -92 250q-91 107 -258 107q-119 0 -210.5 -63.5t-121.5 -170.5h-98l86 881q115 14 297 -27q1 -1 78 -20l94 -21l86 -10q68 -6 100 2q113 24 181 80l2 -6q-210 -275 -611 -193 l-139 33l-53 -524q57 60 153.5 98.5t190.5 38.5q233 0 371 -123q139 -121 139 -323v-15q0 -190 -156 -325q-153 -135 -381 -135q-214 0 -504 137z" />
<glyph unicode="6" horiz-adv-x="1357" d="M133 580v20q0 234 123 424q121 187 305.5 295.5t401.5 134.5v-6q-262 -59 -447 -299q-186 -238 -186 -547v-29q0 -225 106 -360q107 -137 266 -137q151 0 238 112q92 115 92 256v27q0 174 -104 272q-104 101 -258 95q-131 -3 -240 -86v6q99 102 238 129q144 31 260 -8 q124 -38 209 -148q88 -107 88 -264v-23q0 -187 -152 -327q-149 -137 -371 -137q-233 0 -401 165t-168 435z" />
<glyph unicode="7" horiz-adv-x="1179" d="M88 1073v361h1006v-7q-122 -138 -215 -270q-100 -142 -157.5 -244.5t-98.5 -218.5q-44 -130 -62 -196q-21 -86 -29 -187l-12 -159v-152h-196q0 297 118 596q122 310 410 682h-631l-127 -205h-6z" />
<glyph unicode="8" horiz-adv-x="1323" d="M133 387q0 264 346 399q-120 66 -179.5 142.5t-59.5 181.5q0 154 125 248q128 96 292 96q160 0 285 -90q123 -88 123 -234q0 -188 -252 -305q155 -67 260 -157q117 -99 117 -281q0 -160 -146 -285q-143 -122 -387 -122q-238 0 -381 116t-143 291zM309 375q0 -131 99 -219 q98 -88 251 -88q158 0 252.5 79.5t94.5 200.5q0 40 -23 111q-10 23 -31 47q-5 6 -14 17.5t-13 16t-12 13t-17 15t-22 14.5q-51 37 -102 61l-53 27q-1 1 -57 26l-56 25l-51 24q-132 -80 -189 -168.5t-57 -201.5zM420 1157q0 -90 60 -153.5t184 -116.5l61 -25q164 114 164 271 q0 104 -62.5 168.5t-169.5 64.5t-172 -56.5t-65 -152.5z" />
<glyph unicode="9" horiz-adv-x="1357" d="M133 967v22q0 186 152 326q151 139 370 139q231 0 400 -166q170 -167 170 -434v-20q0 -235 -125 -424q-120 -187 -303.5 -295.5t-401.5 -134.5v6q260 59 445 299q188 241 188 546v29q0 221 -108 359q-109 139 -265 139q-149 0 -241 -115q-90 -116 -90 -254v-26 q0 -174 104 -275q107 -98 260 -92q132 3 238 86v-6q-65 -67 -151 -103.5t-173 -40t-172 24t-150.5 80.5t-106 139t-40.5 191z" />
<glyph unicode=":" horiz-adv-x="405" d="M102 80q0 41 30 70.5t73 29.5q41 0 69.5 -29.5t28.5 -70.5t-28.5 -70.5t-69.5 -29.5q-43 0 -73 29.5t-30 70.5zM102 739q0 41 30 71t73 30q41 0 69.5 -29.5t28.5 -71.5q0 -41 -28.5 -70.5t-69.5 -29.5q-43 0 -73 29.5t-30 70.5z" />
<glyph unicode=";" horiz-adv-x="464" d="M102 -260q157 121 160 252q-12 -6 -29 -6q-44 0 -71 26t-27 68q0 39 28 67.5t70 28.5q61 0 95 -41t34 -104q0 -94 -68.5 -172t-191.5 -125v6zM135 739q0 41 30 71t73 30q41 0 69.5 -29.5t28.5 -71.5q0 -41 -28.5 -70.5t-69.5 -29.5q-43 0 -73 29.5t-30 70.5z" />
<glyph unicode="&#x3c;" horiz-adv-x="962" d="M102 553v102l758 308v-103l-633 -256l633 -266v-102z" />
<glyph unicode="=" horiz-adv-x="962" d="M102 428v94h758v-94h-758zM102 680v96h758v-96h-758z" />
<glyph unicode="&#x3e;" horiz-adv-x="962" d="M102 238v100l633 266l-633 256v103l758 -308v-102z" />
<glyph unicode="?" horiz-adv-x="1171" d="M102 1071v279q273 104 447 104q242 0 381 -121t139 -303v-12q0 -186 -162 -311q-160 -127 -438 -136l-16 -235h-62l-22 330h57q115 4 203.5 38.5t140 87.5t77 114.5t25.5 127.5v8q0 132 -81 222q-82 94 -242 94q-248 0 -440 -287h-7zM319 80q0 41 30 70.5t73 29.5 q41 0 69.5 -29.5t28.5 -70.5t-28.5 -70.5t-69.5 -29.5q-43 0 -73 29.5t-30 70.5z" />
<glyph unicode="@" horiz-adv-x="1796" d="M133 393v33q0 315 223 516q224 205 541 205t541 -205q225 -202 225 -516v-18q0 -186 -76 -308q-77 -120 -188 -120q-83 0 -135 49.5t-66 126.5q-114 -176 -350 -176q-197 0 -318 118q-120 120 -120 301v21q0 181 120 301q122 119 318 119q232 0 346 -172l92 151h60v-616 q0 -144 75 -144q127 0 127 349v22q0 316 -184 485q-182 170 -467 170q-270 0 -455 -188q-184 -187 -184 -467v-41q0 -279 203 -467q206 -188 485 -188q340 0 557 178v-6q-88 -91 -239 -162q-153 -72 -318 -72q-206 0 -397 90q-183 88 -301 256q-115 171 -115 375zM582 399 q0 -153 84 -246.5t219 -93.5q129 0 207 84q94 94 94 254v23q0 164 -96 260q-80 80 -205 80q-135 0 -219 -93.5t-84 -246.5v-21z" />
<glyph unicode="A" horiz-adv-x="1548" d="M41 0v6l133 90l545 1338h100l555 -1338l133 -90v-6h-465v6l134 90l-162 396h-568l-159 -396l133 -90v-6h-379zM487 588h486l-244 594z" />
<glyph unicode="B" horiz-adv-x="1476" d="M190 0v6l134 90v1241l-134 90v7h641q223 0 340 -105q119 -104 119 -227v-29q0 -85 -59 -166.5t-160 -122.5q161 -48 234 -151q77 -106 77 -213v-29q0 -147 -135 -270q-136 -121 -405 -121h-652zM506 166q0 -70 69 -70h252q102 0 178.5 30t112.5 81q64 90 64 182v33 q0 36 -8 71.5t-32 77t-61 72.5t-101 51.5t-146 20.5h-328v-549zM506 811h332q79 0 137 27t84 71q47 77 47 150v33q0 28 -7.5 58t-27.5 64.5t-51 61t-83 44t-118 17.5h-313v-526z" />
<glyph unicode="C" horiz-adv-x="1490" d="M133 700v33q0 318 221 518q226 203 541 203q242 0 500 -98v-279h-6q-183 281 -494 281q-250 0 -406 -176q-155 -174 -155 -445v-41q0 -272 155 -446t406 -174q312 0 494 280h6v-278q-258 -98 -500 -98q-315 0 -541 200q-221 203 -221 520z" />
<glyph unicode="D" horiz-adv-x="1726" d="M190 0v6l134 90v1241l-134 90v7h607q207 0 389 -78q179 -75 295 -242q114 -164 114 -381v-33q0 -219 -114 -383q-113 -158 -289.5 -237.5t-394.5 -79.5h-607zM506 166q0 -70 69 -70h220q257 0 428 160q170 164 170 440v41q0 275 -170 439q-167 161 -428 161h-289v-1171z " />
<glyph unicode="E" horiz-adv-x="1421" d="M190 0v6l134 90v1241l-134 90v7h1098v-287h-6l-106 190h-670v-542h518l102 155h7v-407h-7l-102 155h-518v-532q0 -70 69 -70h619l127 211h6v-307h-1137z" />
<glyph unicode="F" horiz-adv-x="1376" d="M190 0v6l134 90v1241l-134 90v7h1092v-287h-6l-105 190h-665v-563h512l102 156h6v-410h-6l-102 156h-512v-580l176 -90v-6h-492z" />
<glyph unicode="G" horiz-adv-x="1628" d="M133 717v16q0 318 221 518q226 203 541 203q242 0 500 -98v-279h-6q-183 281 -494 281q-250 0 -406 -176q-155 -174 -155 -445v-24q0 -277 170 -459q172 -178 426 -178q145 0 252 55q52 24 71 57t19 101v248l-271 94v6h441v-449q-79 -85 -232 -149q-145 -59 -305 -59 q-334 0 -553 198q-219 201 -219 539z" />
<glyph unicode="H" horiz-adv-x="1839" d="M190 0v6l134 90v1241l-134 90v7h449v-7l-133 -90v-542h829v542l-133 90v7h449v-7l-133 -90v-1241l133 -90v-6h-449v6l133 90v602h-829v-602l133 -90v-6h-449z" />
<glyph unicode="I" horiz-adv-x="827" d="M190 0v6l134 90v1241l-134 90v7h449v-7l-133 -90v-1241l133 -90v-6h-449z" />
<glyph unicode="J" horiz-adv-x="843" d="M88 -510q159 117 205 229q47 112 47 396v1222l-133 90v7h448v-7l-133 -90v-1331q0 -451 -434 -522v6z" />
<glyph unicode="K" horiz-adv-x="1579" d="M190 0v6l134 90v1241l-134 90v7h449v-7l-133 -90v-663l606 663l-131 90v7h410v-7l-140 -88l-442 -483l600 -760l129 -90v-6h-496v6l134 90l-492 629l-178 -195v-434l133 -90v-6h-449z" />
<glyph unicode="L" horiz-adv-x="1312" d="M190 0v6l134 90v1241l-134 90v7h449v-7l-133 -90v-1241h633l129 226h6v-322h-1084z" />
<glyph unicode="M" horiz-adv-x="2101" d="M186 0v6l133 90v1241l-133 90v7h328l545 -1147l530 1147h324v-7l-133 -90v-1241l133 -90v-6h-449v6l133 90v1102l-532 -1147h-96l-533 1123v-1078l133 -90v-6h-383z" />
<glyph unicode="N" horiz-adv-x="1861" d="M186 0v6l133 90v1241l-133 90v7h365l876 -1129v1032l-159 90v7h407v-7l-133 -90v-1337h-110l-996 1282v-1186l160 -90v-6h-410z" />
<glyph unicode="O" d="M133 700v33q0 318 221 518q226 203 541 203q320 0 541 -203q223 -198 223 -518v-33q0 -319 -223 -520q-221 -200 -541 -200q-315 0 -541 200q-221 203 -221 520zM334 696q0 -272 155 -446t406 -174q250 0 405 174q158 178 158 446v41q0 267 -158 445q-156 176 -405 176 q-250 0 -406 -176q-155 -174 -155 -445v-41z" />
<glyph unicode="P" horiz-adv-x="1482" d="M190 0v6l134 90v1241l-134 90v7h592q146 0 263 -40t180 -108q125 -131 125 -280v-27q0 -56 -20.5 -113t-60 -110.5t-104.5 -93.5q-65 -38 -147 -60q-61 -16 -139 -16q-27 0 -57 2q-114 8 -242 47v39q101 -17 181 -17h9q83 1 146 23.5t107.5 54.5t72 74.5t40 83.5t13.5 82 v33q0 102 -72 206q-38 57 -119 90t-194 33h-258v-1241l176 -90v-6h-492z" />
<glyph unicode="Q" d="M133 700v33q0 318 221 518q226 203 541 203q320 0 541 -203q223 -198 223 -518v-33q0 -212 -106 -380t-289 -257l59 -116q55 -92 74 -115q53 -61 110.5 -99.5t134.5 -49.5v-7q-22 -2 -44 -2q-316 0 -496 330q-99 -24 -207 -24q-315 0 -541 200q-221 203 -221 520z M334 696q0 -272 155 -446t406 -174q77 0 160 22q-39 76 -78 131q-34 51 -107 109q-70 55 -159 70v6q22 2 43 2q270 0 448 -250q122 80 189 218.5t67 311.5v41q0 267 -158 445q-156 176 -405 176q-250 0 -406 -176q-155 -174 -155 -445v-41z" />
<glyph unicode="R" horiz-adv-x="1554" d="M190 0v6l134 90v1241l-134 90v7h592q138 0 248.5 -36.5t171.5 -99.5q119 -119 119 -256v-28q0 -125 -107 -244q-52 -61 -149.5 -99t-220.5 -42q90 -37 166.5 -112.5t154.5 -197.5q174 -277 348 -333v-6h-38q-223 3 -361 126q-64 58 -103 105.5t-83 118.5l-84 129 q-24 36 -74 86q-46 46 -94 63t-119 17h-51v-529l133 -90v-6h-449zM506 721h287q96 0 167.5 29t104.5 77q59 91 59 185v32q0 95 -63 183q-36 51 -111.5 80.5t-177.5 29.5h-266v-616z" />
<glyph unicode="S" horiz-adv-x="1304" d="M133 127v311h6q214 -362 516 -362q158 0 249 72.5t93 181.5v12q0 132 -102 208t-332 132q-413 108 -413 393v19q3 146 124 252q123 108 336 108q183 0 459 -98v-279h-6q-84 138 -201 209.5t-252 71.5q-151 0 -223 -72q-68 -71 -68 -156v-14q0 -54 20.5 -93t71 -70.5 t115 -55.5t170.5 -53q240 -64 357.5 -174t117.5 -285v-14q0 -166 -143 -279q-139 -112 -373 -112q-203 0 -522 147z" />
<glyph unicode="T" horiz-adv-x="1368" d="M41 1094v340h1286v-340h-6l-143 243h-402v-1241l131 -90v-6h-448v6l133 90v1241h-402l-143 -243h-6z" />
<glyph unicode="U" horiz-adv-x="1871" d="M190 1427v7h459v-7l-125 -90v-723q0 -263 121.5 -400.5t333.5 -137.5q201 0 330 129q129 132 129 393v739l-133 90v7h383v-7l-134 -90v-729q0 -156 -51 -282t-139 -201q-174 -145 -399 -145h-9q-99 0 -187 21q-92 22 -174.5 72t-142 124.5t-94 186t-34.5 249.5v704z" />
<glyph unicode="V" horiz-adv-x="1533" d="M41 1427v7h465v-7l-133 -90l440 -1083l434 1083l-133 90v7h379v-7l-133 -90l-539 -1337h-100l-547 1337z" />
<glyph unicode="W" horiz-adv-x="2453" d="M41 1427v7h463v-7l-135 -90l403 -1077l438 1174h113l444 -1174l400 1077l-133 90v7h379v-7l-132 -88l-503 -1339h-101l-450 1182l-443 -1182h-100l-512 1339z" />
<glyph unicode="X" horiz-adv-x="1513" d="M41 0v6l133 90l457 641l-449 600l-133 90v7h494v-7l-133 -90l366 -487l346 489l-129 88v7h389v-7l-131 -90l-407 -577l495 -664l134 -90v-6h-494v6l131 90l-414 553l-393 -553l133 -90v-6h-395z" />
<glyph unicode="Y" horiz-adv-x="1490" d="M41 1427v7h475v-7l-133 -90l412 -610l397 610l-133 90v7h391v-7l-131 -90l-475 -725v-516l133 -90v-6h-451v6l133 90v512l-487 731z" />
<glyph unicode="Z" horiz-adv-x="1366" d="M102 0l871 1337h-633l-129 -213h-6v310h1038l-870 -1338h739l145 258h7v-354h-1162z" />
<glyph unicode="[" horiz-adv-x="581" d="M102 -268v1777h377v-82h-192v-1613h192v-82h-377z" />
<glyph unicode="\" horiz-adv-x="907" d="M102 1434h111l592 -1434h-111z" />
<glyph unicode="]" horiz-adv-x="581" d="M102 -186h195v1613h-195v82h377v-1777h-377v82z" />
<glyph unicode="_" horiz-adv-x="1054" d="M102 -150h850v-94h-850v94z" />
<glyph unicode="`" horiz-adv-x="507" d="M102 1798h215l89 -262h-7z" />
<glyph unicode="a" horiz-adv-x="1157" d="M119 227v11q3 131 100 194q106 67 246 70h18q149 0 262 -47q-18 290 -278 290q-57 0 -132 -30.5t-132 -77.5h-6q57 88 155.5 145.5t202.5 57.5q162 0 258 -102t96 -302v-354l131 -76v-6h-295v152q-35 -58 -102 -105q-92 -65 -225 -65h-10q-117 0 -203 65q-86 71 -86 180z M279 231q1 -78 54.5 -124t133.5 -46q102 0 182 68q93 78 96 246v24q-121 23 -211 23q-255 0 -255 -186v-5z" />
<glyph unicode="b" horiz-adv-x="1294" d="M129 0v6l131 76v1270l-131 75v7h291v-756q113 162 336 162q195 0 317 -119q123 -120 123 -301v-21q0 -181 -123 -301q-121 -118 -317 -118q-229 0 -342 165v-145h-285zM420 397q0 -162 94 -256q79 -82 207 -82q135 0 219 93.5t84 246.5v21q0 153 -84 246.5t-219 93.5 q-122 0 -201 -76q-100 -93 -100 -264v-23z" />
<glyph unicode="c" horiz-adv-x="1032" d="M100 399v21q0 178 136 299q139 121 337 121q151 0 328 -62v-211h-6q-45 101 -147 155q-75 39 -161 39q-31 0 -63 -5q-126 -21 -196 -131q-55 -87 -55 -195q0 -24 3 -49l3 -21q21 -127 116.5 -204.5t239.5 -77.5q157 0 295 108h6q-58 -100 -158.5 -153t-216.5 -53 q-202 0 -332 118q-129 120 -129 301z" />
<glyph unicode="d" horiz-adv-x="1294" d="M100 399v21q0 181 123 301q122 119 316 119q225 0 338 -162v665l-132 84v7h291v-1344l131 -84v-6h-284v145q-113 -165 -344 -165q-195 0 -316 118q-123 120 -123 301zM272 399q0 -153 84 -246.5t219 -93.5q129 0 209 86q93 93 93 252v23q0 168 -99 260q-77 80 -203 80 q-135 0 -219 -93.5t-84 -246.5v-21z" />
<glyph unicode="e" horiz-adv-x="1040" d="M100 399v21q0 179 123 299q124 121 316 121q173 0 286 -113q115 -115 115 -297h-666q1 -27 9 -80l6 -20q26 -116 119 -184t227 -68q157 0 295 108h6q-58 -100 -158.5 -153t-216.5 -53q-202 0 -332 118q-129 120 -129 301zM279 512h501q-6 109 -72.5 176.5t-170.5 67.5 q-99 0 -169 -66t-89 -178z" />
<glyph unicode="f" horiz-adv-x="790" d="M119 0v6l131 76v657h-115l115 80v92q0 239 117 389q121 154 342 154q59 0 141 -18v-230h-6q-58 150 -193 150q-107 0 -172 -74t-65 -227v-236h270l-115 -80h-155v-657l164 -76v-6h-459z" />
<glyph unicode="g" horiz-adv-x="1095" d="M115 -285q0 104 78 197q-68 47 -68 123q0 119 108 233q-100 87 -100 228v14q0 140 109 235q112 95 280 95q70 0 146 -21h321l-110 -76h-78q114 -88 114 -233v-14q0 -142 -110 -236t-283 -94q-140 0 -252 74q-45 -71 -45 -136q0 -47 34.5 -65.5t119.5 -18.5h317 q135 0 203 -30q90 -38 90 -164q0 -140 -127 -240q-122 -99 -309 -114q-41 -4 -78 -4q-144 0 -239 52q-121 66 -121 195zM205 -233q0 -113 80 -160t252 -47q149 0 235 58t86 151q0 51 -34 73.5t-113 22.5h-295q-104 0 -168 24q-43 -64 -43 -122zM297 494q0 -106 64 -176 t163 -70q102 0 166 69.5t64 176.5v18q0 107 -64 176.5t-166 69.5q-99 0 -163 -70t-64 -176v-18z" />
<glyph unicode="h" horiz-adv-x="1363" d="M133 0v6l131 76v1270l-131 75v7h291v-758q32 49 100 98q104 66 234 66q159 -2 258.5 -96t99.5 -261v-401l131 -76v-6h-295l2 518q0 114 -67.5 177t-171.5 63q-113 0 -195 -70q-96 -84 -96 -258v-348l131 -76v-6h-422z" />
<glyph unicode="i" horiz-adv-x="681" d="M133 0v6l131 76v655l-131 76v6h293l-2 -737l131 -76v-6h-422zM231 1089.5q0 40.5 29 69.5q31 29 71.5 29t69.5 -29t29 -69.5t-29 -69.5t-69.5 -29t-71.5 29q-29 29 -29 69.5z" />
<glyph unicode="j" horiz-adv-x="675" d="M129 -510q160 114 205 221q47 112 47 377v649l-131 76v6h291v-792q0 -247 -117 -379q-114 -129 -295 -164v6zM350 1089.5q0 40.5 29 69.5q31 29 71.5 29t69.5 -29t29 -69.5t-29 -69.5t-69.5 -29t-71.5 29q-29 29 -29 69.5z" />
<glyph unicode="k" horiz-adv-x="1163" d="M133 0v6l131 76v1270l-131 75v7h291v-981l344 290l-125 70v6h385v-6l-133 -70l-272 -231l221 -256q184 -208 284 -260v-6q-37 -5 -70 -5q-86 0 -154 31q-95 43 -191 152l-209 240l-80 -68v-258l131 -76v-6h-422z" />
<glyph unicode="l" horiz-adv-x="671" d="M133 0v6l131 76v1270l-131 75v7h291v-1352l131 -76v-6h-422z" />
<glyph unicode="m" horiz-adv-x="2000" d="M129 0v6l131 76v655l-131 76v6h283v-149q38 55 106 104q104 66 223 66q111 0 195.5 -52.5t120.5 -150.5q48 78 123 133q106 67 223 70h15q146 0 238 -91q98 -96 97 -266v-401l131 -76v-6h-295l2 518q0 117 -63 178.5t-162 61.5q-103 -3 -180 -68q-101 -82 -101 -260v-348 l132 -76v-6h-295l2 518q0 114 -62.5 177t-159.5 63q-104 0 -182 -66q-100 -81 -100 -262v-348l131 -76v-6h-422z" />
<glyph unicode="n" horiz-adv-x="1359" d="M129 0v6l131 76v655l-131 76v6h283v-149q40 60 106 102q103 68 234 68q159 0 259.5 -95t100.5 -262v-401l129 -76v-6h-293v518q0 117 -67 178.5t-172 61.5q-111 -3 -189 -66q-100 -84 -100 -262v-348l131 -76v-6h-422z" />
<glyph unicode="o" horiz-adv-x="1148" d="M100 399v21q0 178 136 299q139 121 337 121q199 0 338 -121q138 -120 138 -299v-21q0 -181 -138 -301q-136 -118 -338 -118q-199 0 -337 120q-136 121 -136 299zM272 399q0 -152 83.5 -246t217.5 -94q136 0 220 93.5t84 246.5v21q0 153 -84 246.5t-220 93.5 q-134 0 -217.5 -94t-83.5 -246v-21z" />
<glyph unicode="p" horiz-adv-x="1298" d="M133 -506l131 76v1167l-131 76v6h283v-149q114 170 344 170q195 0 317 -119q123 -120 123 -301v-21q0 -181 -123 -301q-121 -118 -317 -118q-224 0 -336 161v-571l164 -76v-6h-455v6zM424 397q0 -162 92 -254q78 -84 209 -84q135 0 219 93.5t84 246.5v21q0 153 -84 246.5 t-219 93.5q-125 0 -203 -78q-98 -94 -98 -262v-23z" />
<glyph unicode="q" horiz-adv-x="1294" d="M100 399v21q0 181 123 301q122 119 316 119q232 0 346 -170v149h282v-6l-131 -76v-1167l131 -76v-6h-454v6l164 76v571q-112 -161 -338 -161q-195 0 -316 118q-123 120 -123 301zM272 399q0 -153 84 -246.5t219 -93.5q128 0 207 82q95 95 95 256v23q0 171 -103 266 q-77 74 -199 74q-135 0 -219 -93.5t-84 -246.5v-21z" />
<glyph unicode="r" horiz-adv-x="862" d="M129 0v6l131 76v655l-131 76v6h291v-174q111 110 175.5 152.5t121.5 42.5q59 0 100 -21v-139q-77 18 -133 18q-38 0 -66 -8q-72 -18 -198 -110v-498l164 -76v-6h-455z" />
<glyph unicode="s" horiz-adv-x="892" d="M123 70v225h6q117 -236 328 -236q83 0 129.5 34.5t46.5 90.5v11q0 64 -50 98.5t-177 66.5q-275 71 -275 256v7q2 91 77.5 154t199.5 63q102 0 288 -62v-211h-6q-42 92 -117 142.5t-163 50.5q-69 0 -109.5 -33t-40.5 -80v-4q0 -51 57 -88l43 -18q19 -6 32 -9.5t32 -8.5 t41 -11q303 -82 303 -289v-8q0 -103 -88 -167t-223 -64q-125 0 -334 90z" />
<glyph unicode="t" horiz-adv-x="866" d="M109 739l114 80l158 361h6v-361h401l-114 -80h-287v-428q0 -231 201 -231q115 0 235 108h6q-128 -204 -323 -204q-134 0 -208.5 79.5t-74.5 212.5v463h-114z" />
<glyph unicode="u" horiz-adv-x="1325" d="M119 813v6h295l-2 -518q0 -117 64 -179q62 -61 155 -61h6q102 3 180 66q101 85 101 262v348l-132 76v6h291v-737l131 -76v-6h-282v150q-44 -64 -111 -105q-95 -65 -223 -65q-152 0 -247 94t-95 262v401z" />
<glyph unicode="v" horiz-adv-x="1087" d="M37 813v6h268l285 -614l239 532l-129 76v6h353v-6l-131 -76l-330 -737h-88l-336 737z" />
<glyph unicode="w" horiz-adv-x="1650" d="M37 813v6h436v-6l-129 -76l221 -526l256 608h92l258 -608l222 526l-131 76v6h354v-6l-131 -76l-309 -737h-89l-260 614l-258 -614h-88l-313 737z" />
<glyph unicode="x" horiz-adv-x="1071" d="M37 0v6l133 82l266 352l-225 299l-129 74v6h268l225 -297l164 215l-123 76v6h355v-6l-131 -82l-213 -280l280 -371l129 -74v-6h-268l-279 371l-219 -289l123 -76v-6h-356z" />
<glyph unicode="y" horiz-adv-x="1087" d="M37 813v6h268l279 -616l245 534l-129 76v6h353v-6l-129 -76l-314 -676q-157 -339 -258 -464q-102 -129 -207 -129q-28 0 -71 16v203q50 -33 108 -33q88 0 155 78.5t157 271.5l-326 733z" />
<glyph unicode="z" horiz-adv-x="948" d="M98 0l500 739h-328l-94 -207h-6v287h659l-497 -739h405l107 221h6v-301h-752z" />
<glyph unicode="{" horiz-adv-x="679" d="M102 621q86 48 115 120q12 27 12 72q0 56 -18 137q-63 262 37 396q24 36 82 69q93 51 248 94v-6q-76 -40 -118 -78t-67 -96q-47 -108 4 -344q50 -256 -217 -364q267 -108 217 -365q-51 -236 -4 -344q25 -58 67 -96t118 -78v-6q-81 20 -140 43q-137 51 -190 121 q-99 134 -37 395q18 81 18 137q0 59 -28 102.5t-99 90.5z" />
<glyph unicode="|" horiz-adv-x="303" d="M102 0v1434h99v-1434h-99z" />
<glyph unicode="}" horiz-adv-x="679" d="M102 -262q77 40 118 78t65 96q49 107 -2 344q-50 257 217 365q-267 108 -217 364q51 237 2 344q-24 58 -65 96t-118 78v6q84 -21 138 -43q139 -51 192 -120q49 -67 59 -155t-22 -241q-18 -81 -18 -137q0 -59 28 -102t99 -90q-86 -48 -117 -123q-10 -30 -10 -70 q0 -56 18 -137q32 -153 22 -240.5t-59 -154.5q-26 -38 -84 -70q-90 -51 -246 -94v6z" />
<glyph unicode="~" horiz-adv-x="958" d="M102 508v108q39 32 105 59t115 27q68 0 157 -47q94 -49 158 -49q99 0 219 99v-109q-39 -32 -104.5 -59t-114.5 -27q-69 0 -158 47q-94 49 -157 49q-101 0 -220 -98z" />
<glyph unicode="&#xa1;" horiz-adv-x="411" d="M102 -334l74 1098h62l71 -1098h-207zM104 1020q0 41 30 70.5t73 29.5q41 0 69.5 -29.5t28.5 -70.5t-28.5 -70.5t-69.5 -29.5q-43 0 -73 29.5t-30 70.5z" />
<glyph unicode="&#xa2;" horiz-adv-x="1040" d="M102 399v21q0 178 136 299q139 121 337 121h7l10 118h57l-10 -120q125 -9 264 -60v-211h-6q-77 164 -266 191l-60 -676q62 -4 66 -4q157 0 295 108h6q-58 -100 -158.5 -153t-216.5 -53l-10 -119h-57l10 121q-178 18 -293 133q-111 117 -111 284zM279 381l2 -21 q17 -98 78 -167.5t157 -98.5l57 666q-1 0 -47 -4q-126 -21 -196 -131q-66 -106 -51 -244z" />
<glyph unicode="&#xa3;" horiz-adv-x="1316" d="M102 651v51h177v271q0 227 139 354t368 127q231 0 428 -98v-279h-6q-85 141 -186 211t-236 70q-156 0 -238.5 -96.5t-82.5 -260.5v-299h485v-51h-485v-495h616l127 204h6v-360h-935v651h-177z" />
<glyph unicode="&#xa5;" horiz-adv-x="1613" d="M102 1427v7h476v-7l-134 -90l412 -610l397 610l-133 90v7h391v-7l-131 -90l-452 -690h311v-51h-334v-164h334v-51h-334v-285l133 -90v-6h-450v6l133 90v285h-336v51h336v164h-336v51h309l-461 692z" />
<glyph unicode="&#xa6;" horiz-adv-x="303" d="M102 0v614h99v-614h-99zM102 819v615h99v-615h-99z" />
<glyph unicode="&#xa7;" horiz-adv-x="878" d="M102 600v8q0 124 123 189q-86 65 -86 170v6q2 91 78 154t197 63q105 0 291 -62v-210h-7q-42 92 -117 142t-163 50q-69 0 -109.5 -34t-40.5 -83q0 -51 58 -88l43 -18q19 -6 31.5 -9.5t31.5 -8.5t41 -11q303 -82 303 -289v-8q0 -123 -123 -188q86 -65 86 -170v-6 q0 -91 -75 -154t-199 -63q-108 0 -291 61v211h6q42 -92 117.5 -142.5t163.5 -50.5q69 0 110 34t41 83q0 32 -13.5 51.5t-49.5 36.5q-15 7 -25 11.5t-24 9t-21.5 6.5t-32 9t-40.5 11q-304 82 -304 289zM223 635q0 -67 53.5 -105.5t190.5 -76.5q74 -21 106 -35q84 27 84 117 q0 67 -53 105.5t-190 76.5q-82 23 -105 35q-86 -27 -86 -117z" />
<glyph unicode="&#xa8;" horiz-adv-x="768" d="M102 1626q0 37 26.5 62.5t64.5 25.5q37 0 62.5 -25.5t25.5 -62.5q0 -38 -25.5 -64t-62.5 -26q-38 0 -64.5 26t-26.5 64zM487 1626q0 37 26.5 62.5t64.5 25.5q37 0 62.5 -25.5t25.5 -62.5q0 -38 -25.5 -64t-62.5 -26q-38 0 -64.5 26t-26.5 64z" />
<glyph unicode="&#xa9;" horiz-adv-x="1290" d="M102 901q0 225 156 389t387 164t387 -164t156 -389q0 -227 -156 -391q-155 -162 -387 -162t-387 162q-156 164 -156 391zM164 901q0 -209 137 -352t344 -143t344 143t137 352q0 207 -137 350q-140 146 -344 146t-344 -146q-137 -143 -137 -350zM326 887v14q0 127 96 211 q95 86 237 86q113 0 232 -43v-156h-4q-33 71 -105 111t-155 27q-85 -14 -133.5 -88.5t-38.5 -176.5v-12q14 -89 81.5 -143.5t168.5 -54.5q114 0 204 75h4q-37 -70 -108 -107.5t-154 -37.5q-142 0 -235 84q-90 84 -90 211z" />
<glyph unicode="&#xab;" horiz-adv-x="1024" d="M102 514l476 438v-6l-279 -432l279 -430v-6zM444 514l476 438v-6l-279 -432l279 -430v-6z" />
<glyph unicode="&#xad;" horiz-adv-x="647" d="M102 438v94h443v-94h-443z" />
<glyph unicode="&#xae;" horiz-adv-x="1290" d="M102 901q0 225 156 389t387 164t387 -164t156 -389q0 -227 -156 -391q-155 -162 -387 -162t-387 162q-156 164 -156 391zM164 901q0 -209 137 -352t344 -143t344 143t137 352q0 207 -137 350q-140 146 -344 146t-344 -146q-137 -143 -137 -350zM305 612v4l92 54v458 l-92 54v4h369q84 0 135 -44t51 -108v-10q0 -53 -39 -94.5t-104 -48.5l78 -90q134 -146 200 -183v-2q-154 -21 -288 125l-119 139h-84v-200l90 -54v-4h-289zM504 924h135q54 0 83.5 28.5t29.5 69.5v10q0 41 -31.5 69.5t-89.5 28.5h-127v-206z" />
<glyph unicode="&#xaf;" horiz-adv-x="679" d="M102 1593v107h476v-107h-476z" />
<glyph unicode="&#xb0;" horiz-adv-x="614" d="M102 1248q0 84 60 145t145.5 61t145.5 -61t60 -145t-60 -146q-60 -60 -145.5 -60t-145.5 60q-60 62 -60 146zM178 1247q0 -54 37.5 -91.5t91.5 -37.5q53 0 91 38.5t38 90.5q0 55 -37.5 93t-91.5 38t-91.5 -38t-37.5 -93z" />
<glyph unicode="&#xb1;" horiz-adv-x="962" d="M102 203v96h758v-96h-758zM102 608v97h332v223h96v-223h330v-97h-330v-223h-96v223h-332z" />
<glyph unicode="&#xb4;" horiz-adv-x="507" d="M102 1536l88 262h216l-297 -262h-7z" />
<glyph unicode="&#xb6;" horiz-adv-x="999" d="M102 1100q0 152 94 243t240 91h176v-1434h-229v6l133 90v670h-80q-146 0 -240 91t-94 243zM668 0v1434h229v-7l-133 -90v-1241l133 -90v-6h-229z" />
<glyph unicode="&#xb7;" horiz-adv-x="405" d="M102 739q0 41 30 71t73 30q41 0 69.5 -29.5t28.5 -71.5q0 -41 -28.5 -70.5t-69.5 -29.5q-43 0 -73 29.5t-30 70.5z" />
<glyph unicode="&#xb8;" horiz-adv-x="460" d="M102 -152l48 152h61l-31 -96q37 16 68 16q53 0 81.5 -26t28.5 -68q0 -118 -247 -225h-9q94 82 109 157q21 103 -57 103q-19 0 -45 -13h-7z" />
<glyph unicode="&#xbb;" horiz-adv-x="1024" d="M102 78v6l279 430l-279 432v6l476 -438zM444 78v6l279 430l-279 432v6l476 -438z" />
<glyph unicode="&#xbc;" horiz-adv-x="1447" d="M102 1307v6l281 125h6v-586l135 -57v-7h-405v7l135 57v455h-152zM213 0l942 1434h121l-942 -1434h-121zM752 137v6l387 502h88v-440h119v-68h-119v-74l119 -57v-6h-373v6l119 57v74h-340zM889 205h203v264z" />
<glyph unicode="&#xbd;" horiz-adv-x="1513" d="M102 1307v6l281 125h6v-586l135 -57v-7h-405v7l135 57v455h-152zM213 0l942 1434h121l-942 -1434h-121zM891 0v6q235 204 307 297t72 168v4q0 53 -34.5 87t-98.5 34q-48 0 -93 -25q-27 -16 -48.5 -35.5t-32 -33.5t-37.5 -51h-6v172q128 43 223 43q122 0 195 -53.5 t73 -141.5v-6q0 -74 -72 -155.5t-247 -203.5h247l66 111h6v-217h-520z" />
<glyph unicode="&#xbe;" horiz-adv-x="1531" d="M102 831v175h7q38 -69 109 -118.5t142 -49.5q69 0 109.5 33.5t40.5 89.5v6q0 54 -39.5 92.5t-120.5 38.5h-61v71h65q62 0 92.5 29.5t30.5 69.5v10q0 47 -36 76.5t-105 29.5q-128 0 -211 -141h-6v168q139 43 223 43h6q124 -1 194 -49.5t70 -120.5v-8q0 -50 -38 -86.5 t-101 -48.5q81 -18 129.5 -64t48.5 -112v-2q0 -85 -80.5 -140t-208.5 -55t-260 63zM295 0l942 1434h121l-942 -1434h-121zM834 137v6l387 502h88v-440h118v-68h-118v-74l118 -57v-6h-372v6l119 57v74h-340zM973 205h203v264z" />
<glyph unicode="&#xbf;" horiz-adv-x="1171" d="M102 72v12q0 184 162 309q166 128 438 137l17 236h61l23 -332h-58q-220 -6 -335 -115q-111 -108 -111 -251v-9q0 -130 82 -221q82 -94 244 -94q128 0 241 78t197 209h6v-279q-273 -104 -444 -104q-241 0 -383 121q-140 122 -140 303zM651 1020q0 41 29 72q31 31 71.5 31 t69.5 -31q31 -31 31 -72t-31 -72q-29 -29 -69.5 -29t-71.5 29q-29 31 -29 72z" />
<glyph unicode="&#xc0;" horiz-adv-x="1548" d="M41 0v6l133 90l545 1338h100l557 -1338l131 -90v-6h-465v6l134 90l-162 396h-568l-159 -396l133 -90v-6h-379zM487 588h486l-244 594zM547 1798h215l88 -262h-6z" />
<glyph unicode="&#xc1;" horiz-adv-x="1548" d="M41 0v6l133 90l545 1338h100l557 -1338l131 -90v-6h-465v6l134 90l-162 396h-568l-159 -396l133 -90v-6h-379zM487 588h486l-244 594zM643 1536l88 262h215l-297 -262h-6z" />
<glyph unicode="&#xc2;" horiz-adv-x="1548" d="M41 0v6l133 90l545 1338h100l557 -1338l131 -90v-6h-465v6l134 90l-162 396h-568l-159 -396l133 -90v-6h-379zM487 588h486l-244 594zM500 1536l266 262h8l266 -262h-6l-264 106l-264 -106h-6z" />
<glyph unicode="&#xc3;" horiz-adv-x="1548" d="M41 0v6l133 90l545 1338h100l557 -1338l131 -90v-6h-465v6l134 90l-162 396h-568l-159 -396l133 -90v-6h-379zM487 588h486l-244 594zM524 1520q83 207 271 145q56 -20 127 -14q72 9 92 51l8 -4q-83 -206 -270 -148q-65 23 -129 15q-72 -6 -93 -49z" />
<glyph unicode="&#xc4;" horiz-adv-x="1548" d="M41 0v6l133 90l545 1338h100l557 -1338l131 -90v-6h-465v6l134 90l-162 396h-568l-159 -396l133 -90v-6h-379zM487 588h486l-244 594zM489 1626q0 37 26.5 62.5t64.5 25.5q37 0 62.5 -25.5t25.5 -62.5q0 -38 -25.5 -64t-62.5 -26q-38 0 -64.5 26t-26.5 64zM874 1626 q0 37 26.5 62.5t64.5 25.5q37 0 62.5 -25.5t25.5 -62.5q0 -38 -25.5 -64t-62.5 -26q-38 0 -64.5 26t-26.5 64z" />
<glyph unicode="&#xc5;" horiz-adv-x="1548" d="M41 0v6l133 90l545 1338h100l557 -1338l131 -90v-6h-465v6l134 90l-162 396h-568l-159 -396l133 -90v-6h-379zM487 588h486l-244 594zM621 1688q0 62 44 106.5t107 44.5t107.5 -44.5t44.5 -106.5q0 -63 -44.5 -107.5t-107.5 -44.5t-107 44.5t-44 107.5zM684 1688 q0 -36 26 -62.5t62 -26.5q35 0 61.5 27t26.5 62q0 36 -26 62t-62 26q-37 0 -62.5 -25.5t-25.5 -62.5z" />
<glyph unicode="&#xc6;" horiz-adv-x="1976" d="M41 0v6l133 90l657 1280l-88 51v7h1096v-287h-6l-104 190h-670v-542h518l102 155h7v-407h-7l-102 155h-518v-532q0 -70 69 -70h619l127 211h6v-307h-1137v6l134 90v396h-379l-211 -396l133 -90v-6h-379zM543 588h334v647z" />
<glyph unicode="&#xc7;" horiz-adv-x="1490" d="M133 700v33q0 318 221 518q226 203 541 203q242 0 500 -98v-279h-6q-183 281 -494 281q-250 0 -406 -176q-155 -174 -155 -445v-41q0 -272 155 -446t406 -174q312 0 494 280h6v-278q-253 -95 -490 -98l-24 -76q37 16 67 16q53 0 82 -26t29 -68q0 -117 -248 -225h-8 q93 81 108 157q21 103 -57 103q-19 0 -45 -13h-6l41 134q-300 15 -506 215q-205 199 -205 503z" />
<glyph unicode="&#xc8;" horiz-adv-x="1421" d="M190 0v6l134 90v1241l-134 90v7h1098v-287h-6l-106 190h-670v-542h518l102 155h7v-407h-7l-102 155h-518v-532q0 -70 69 -70h619l127 211h6v-307h-1137zM545 1798h215l88 -262h-6z" />
<glyph unicode="&#xc9;" horiz-adv-x="1421" d="M190 0v6l134 90v1241l-134 90v7h1098v-287h-6l-106 190h-670v-542h518l102 155h7v-407h-7l-102 155h-518v-532q0 -70 69 -70h619l127 211h6v-307h-1137zM676 1536l88 262h215l-297 -262h-6z" />
<glyph unicode="&#xca;" horiz-adv-x="1421" d="M190 0v6l134 90v1241l-134 90v7h1098v-287h-6l-106 190h-670v-542h518l102 155h7v-407h-7l-102 155h-518v-532q0 -70 69 -70h619l127 211h6v-307h-1137zM496 1536l266 262h8l266 -262h-6l-264 106l-264 -106h-6z" />
<glyph unicode="&#xcb;" horiz-adv-x="1421" d="M190 0v6l134 90v1241l-134 90v7h1098v-287h-6l-106 190h-670v-542h518l102 155h7v-407h-7l-102 155h-518v-532q0 -70 69 -70h619l127 211h6v-307h-1137zM475 1626q0 37 26 62.5t64 25.5q37 0 62.5 -25.5t25.5 -62.5q0 -38 -25.5 -64t-62.5 -26q-38 0 -64 26t-26 64z M860 1626q0 37 26 62.5t64 25.5q37 0 62.5 -25.5t25.5 -62.5q0 -38 -25.5 -64t-62.5 -26q-38 0 -64 26t-26 64z" />
<glyph unicode="&#xcc;" horiz-adv-x="831" d="M193 0v6l133 90v1241l-133 90v7h448v-7l-133 -90v-1241l133 -90v-6h-448zM209 1798h215l88 -262h-6z" />
<glyph unicode="&#xcd;" horiz-adv-x="827" d="M190 0v6l134 90v1241l-134 90v7h449v-7l-133 -90v-1241l133 -90v-6h-449zM285 1536l88 262h215l-297 -262h-6z" />
<glyph unicode="&#xce;" horiz-adv-x="919" d="M190 1536l267 262h8l266 -262h-6l-264 106l-264 -106h-7zM233 0v6l134 90v1241l-134 90v7h449v-7l-133 -90v-1241l133 -90v-6h-449z" />
<glyph unicode="&#xcf;" horiz-adv-x="942" d="M190 1626q0 37 26.5 62.5t64.5 25.5q37 0 62.5 -25.5t25.5 -62.5q0 -38 -25.5 -64t-62.5 -26q-38 0 -64.5 26t-26.5 64zM246 0v6l133 90v1241l-133 90v7h448v-7l-133 -90v-1241l133 -90v-6h-448zM575 1626q0 37 26.5 62.5t64.5 25.5q37 0 62.5 -25.5t25.5 -62.5 q0 -38 -25.5 -64t-62.5 -26q-38 0 -64.5 26t-26.5 64z" />
<glyph unicode="&#xd0;" horiz-adv-x="1726" d="M190 0v6l134 90v586h-134v96h134v559l-134 90v7h607q207 0 389 -78q179 -75 295 -242q114 -164 114 -381v-33q0 -219 -114 -383q-113 -158 -289.5 -237.5t-394.5 -79.5h-607zM506 166q0 -70 69 -70h220q257 0 428 160q170 164 170 440v41q0 275 -170 439 q-167 161 -428 161h-289v-559h280v-96h-280v-516z" />
<glyph unicode="&#xd1;" horiz-adv-x="1861" d="M186 0v6l133 90v1241l-133 90v7h365l876 -1129v1032l-159 90v7h407v-7l-133 -90v-1337h-110l-996 1282v-1186l160 -90v-6h-410zM692 1520q83 207 271 145q56 -20 127 -14q72 9 92 51l8 -4q-83 -206 -270 -148q-65 23 -129 15q-72 -6 -93 -49z" />
<glyph unicode="&#xd2;" d="M133 700v33q0 318 221 518q226 203 541 203q320 0 541 -203q223 -198 223 -518v-33q0 -319 -223 -520q-221 -200 -541 -200q-315 0 -541 200q-221 203 -221 520zM334 696q0 -272 155 -446t406 -174q250 0 405 174q158 178 158 446v41q0 267 -158 445q-156 176 -405 176 q-250 0 -406 -176q-155 -174 -155 -445v-41zM694 1798h215l88 -262h-6z" />
<glyph unicode="&#xd3;" d="M133 700v33q0 318 221 518q226 203 541 203q320 0 541 -203q223 -198 223 -518v-33q0 -319 -223 -520q-221 -200 -541 -200q-315 0 -541 200q-221 203 -221 520zM334 696q0 -272 155 -446t406 -174q250 0 405 174q158 178 158 446v41q0 267 -158 445q-156 176 -405 176 q-250 0 -406 -176q-155 -174 -155 -445v-41zM791 1536l88 262h215l-297 -262h-6z" />
<glyph unicode="&#xd4;" d="M133 700v33q0 318 221 518q226 203 541 203q320 0 541 -203q223 -198 223 -518v-33q0 -319 -223 -520q-221 -200 -541 -200q-315 0 -541 200q-221 203 -221 520zM334 696q0 -272 155 -446t406 -174q250 0 405 174q158 178 158 446v41q0 267 -158 445q-156 176 -405 176 q-250 0 -406 -176q-155 -174 -155 -445v-41zM627 1536l266 262h8l266 -262h-6l-264 106l-264 -106h-6z" />
<glyph unicode="&#xd5;" d="M133 700v33q0 318 221 518q226 203 541 203q320 0 541 -203q223 -198 223 -518v-33q0 -319 -223 -520q-221 -200 -541 -200q-315 0 -541 200q-221 203 -221 520zM334 696q0 -272 155 -446t406 -174q250 0 405 174q158 178 158 446v41q0 267 -158 445q-156 176 -405 176 q-250 0 -406 -176q-155 -174 -155 -445v-41zM647 1520q83 207 271 145q56 -20 126 -14q73 9 93 51l8 -4q-83 -207 -271 -148q-65 23 -129 15q-71 -6 -92 -49z" />
<glyph unicode="&#xd6;" d="M133 700v33q0 318 221 518q226 203 541 203q320 0 541 -203q223 -198 223 -518v-33q0 -319 -223 -520q-221 -200 -541 -200q-315 0 -541 200q-221 203 -221 520zM334 696q0 -272 155 -446t406 -174q250 0 405 174q158 178 158 446v41q0 267 -158 445q-156 176 -405 176 q-250 0 -406 -176q-155 -174 -155 -445v-41zM614 1626q0 37 26.5 62.5t64.5 25.5q37 0 62.5 -25.5t25.5 -62.5q0 -38 -25.5 -64t-62.5 -26q-38 0 -64.5 26t-26.5 64zM999 1626q0 37 26.5 62.5t64.5 25.5q37 0 62.5 -25.5t25.5 -62.5q0 -38 -25.5 -64t-62.5 -26 q-38 0 -64.5 26t-26.5 64z" />
<glyph unicode="&#xd7;" horiz-adv-x="808" d="M102 354l236 234l-236 235l68 68l236 -236l233 234l68 -68l-234 -233l234 -234l-66 -67l-235 233l-236 -233z" />
<glyph unicode="&#xd8;" d="M133 0l197 205q-197 203 -197 495v33q0 318 221 518q226 203 541 203q281 0 487 -156l129 136h148l-197 -205q197 -203 197 -496v-33q0 -319 -223 -520q-221 -200 -541 -200q-281 0 -485 155l-129 -135h-148zM334 696q0 -214 104 -379l848 881q-157 160 -391 160 q-250 0 -406 -176q-155 -174 -155 -445v-41zM506 236q157 -160 389 -160q250 0 405 174q158 178 158 446v41q0 214 -104 379z" />
<glyph unicode="&#xd9;" horiz-adv-x="1871" d="M190 1427v7h459v-7l-125 -90v-723q0 -263 121.5 -400.5t333.5 -137.5q201 0 330 129q129 132 129 393v739l-133 90v7h383v-7l-134 -90v-729q0 -156 -51 -282t-139 -201q-174 -145 -399 -145q-104 -1 -196 21t-174.5 72t-142 124.5t-94 186t-34.5 249.5v704zM709 1798h215 l88 -262h-6z" />
<glyph unicode="&#xda;" horiz-adv-x="1871" d="M190 1427v7h459v-7l-125 -90v-723q0 -263 121.5 -400.5t333.5 -137.5q201 0 330 129q129 132 129 393v739l-133 90v7h383v-7l-134 -90v-729q0 -156 -51 -282t-139 -201q-174 -145 -399 -145q-104 -1 -196 21t-174.5 72t-142 124.5t-94 186t-34.5 249.5v704zM874 1536 l89 262h215l-297 -262h-7z" />
<glyph unicode="&#xdb;" horiz-adv-x="1871" d="M190 1427v7h459v-7l-125 -90v-723q0 -263 121.5 -400.5t333.5 -137.5q201 0 330 129q129 132 129 393v739l-133 90v7h383v-7l-134 -90v-729q0 -156 -51 -282t-139 -201q-174 -145 -399 -145q-104 -1 -196 21t-174.5 72t-142 124.5t-94 186t-34.5 249.5v704zM688 1536 l266 262h9l266 -262h-6l-265 106l-264 -106h-6z" />
<glyph unicode="&#xdc;" horiz-adv-x="1871" d="M190 1427v7h459v-7l-125 -90v-723q0 -263 121.5 -400.5t333.5 -137.5q201 0 330 129q129 132 129 393v739l-133 90v7h383v-7l-134 -90v-729q0 -156 -51 -282t-139 -201q-174 -145 -399 -145q-104 -1 -196 21t-174.5 72t-142 124.5t-94 186t-34.5 249.5v704zM678 1626 q0 37 26 62.5t64 25.5q37 0 62.5 -25.5t25.5 -62.5q0 -38 -25.5 -64t-62.5 -26q-38 0 -64 26t-26 64zM1063 1626q0 37 26 62.5t64 25.5q37 0 62.5 -25.5t25.5 -62.5q0 -38 -25.5 -64t-62.5 -26q-38 0 -64 26t-26 64z" />
<glyph unicode="&#xdd;" horiz-adv-x="1490" d="M41 1427v7h475v-7l-133 -90l412 -610l397 610l-133 90v7h391v-7l-131 -90l-475 -725v-516l133 -90v-6h-451v6l133 90v512l-487 731zM643 1536l88 262h215l-297 -262h-6z" />
<glyph unicode="&#xde;" horiz-adv-x="1482" d="M190 0v6l134 90v1241l-134 90v7h478v-7l-162 -90v-186h276q146 0 263 -40t180 -107q125 -131 125 -281v-29q0 -185 -185 -315q-202 -136 -585 -27v39q107 -18 190 -16.5t146 24t107.5 53.5t72 73t40 83t13.5 82v35q0 103 -72 207q-38 57 -119 90t-194 33h-258v-959 l176 -90v-6h-492z" />
<glyph unicode="&#xdf;" horiz-adv-x="1380" d="M129 0v6l133 82v735q0 278 133 455q132 176 377 176q117 0 185.5 -63.5t68.5 -173.5q0 -84 -45 -169t-109 -145q-151 -147 -151 -237v-4q3 -78 119 -121q72 -24 127 -39q148 -46 219 -111.5t71 -171.5v-8q-1 -103 -89.5 -167t-223.5 -64q-125 0 -334 90v225h6 q117 -236 328 -236q83 0 129.5 34.5t48.5 90.5v11q0 62 -50 97t-177 68q-136 38 -205 102.5t-69 166.5v6q0 69 34.5 142t83.5 128q119 137 119 256q0 94 -51 143.5t-129 49.5q-110 0 -177 -78.5t-67 -237.5v-1038h-305z" />
<glyph unicode="&#xe0;" horiz-adv-x="1157" d="M119 227v11q3 131 100 194q106 67 246 70q160 3 280 -47q-18 290 -278 290q-57 0 -132 -30.5t-132 -77.5h-6q57 88 155.5 145.5t202.5 57.5q162 0 258 -102t96 -302v-354l131 -76v-6h-295v152q-35 -58 -102 -105q-92 -65 -225 -65q-124 -3 -213 65q-86 71 -86 180z M279 231q1 -78 54.5 -124t133.5 -46q102 0 182 68q93 78 96 246v24q-466 88 -466 -163v-5zM309 1253h215l88 -262h-6z" />
<glyph unicode="&#xe1;" horiz-adv-x="1157" d="M119 227v11q3 131 100 194q106 67 246 70q160 3 280 -47q-18 290 -278 290q-57 0 -132 -30.5t-132 -77.5h-6q57 88 155.5 145.5t202.5 57.5q162 0 258 -102t96 -302v-354l131 -76v-6h-295v152q-35 -58 -102 -105q-92 -65 -225 -65q-124 -3 -213 65q-86 71 -86 180z M279 231q1 -78 54.5 -124t133.5 -46q102 0 182 68q93 78 96 246v24q-466 88 -466 -163v-5zM406 991l88 262h215l-297 -262h-6z" />
<glyph unicode="&#xe2;" horiz-adv-x="1157" d="M119 227v11q3 131 100 194q106 67 246 70q160 3 280 -47q-18 290 -278 290q-57 0 -132 -30.5t-132 -77.5h-6q57 88 155.5 145.5t202.5 57.5q162 0 258 -102t96 -302v-354l131 -76v-6h-295v152q-35 -58 -102 -105q-92 -65 -225 -65q-124 -3 -213 65q-86 71 -86 180z M260 991l266 262h9l266 -262h-6l-265 107l-264 -107h-6zM279 231q1 -78 54.5 -124t133.5 -46q102 0 182 68q93 78 96 246v24q-466 88 -466 -163v-5z" />
<glyph unicode="&#xe3;" horiz-adv-x="1157" d="M119 227v11q3 131 100 194q106 67 246 70q160 3 280 -47q-18 290 -278 290q-57 0 -132 -30.5t-132 -77.5h-6q57 88 155.5 145.5t202.5 57.5q162 0 258 -102t96 -302v-354l131 -76v-6h-295v152q-35 -58 -102 -105q-92 -65 -225 -65q-124 -3 -213 65q-86 71 -86 180z M279 231q1 -78 54.5 -124t133.5 -46q102 0 182 68q93 78 96 246v24q-466 88 -466 -163v-5zM287 995q83 204 270 146q58 -21 127 -15q71 6 92 50l8 -5q-86 -206 -270 -145q-63 22 -129 14q-71 -6 -92 -49z" />
<glyph unicode="&#xe4;" horiz-adv-x="1157" d="M119 227v11q3 131 100 194q106 67 246 70q160 3 280 -47q-18 290 -278 290q-57 0 -132 -30.5t-132 -77.5h-6q57 88 155.5 145.5t202.5 57.5q162 0 258 -102t96 -302v-354l131 -76v-6h-295v152q-35 -58 -102 -105q-92 -65 -225 -65q-124 -3 -213 65q-86 71 -86 180z M242 1081q0 37 26 62.5t64 25.5q37 0 62.5 -25.5t25.5 -62.5q0 -38 -25.5 -64t-62.5 -26q-38 0 -64 26t-26 64zM279 231q1 -78 54.5 -124t133.5 -46q102 0 182 68q93 78 96 246v24q-466 88 -466 -163v-5zM627 1081q0 37 26 62.5t64 25.5q37 0 62.5 -25.5t25.5 -62.5 q0 -38 -25.5 -64t-62.5 -26q-38 0 -64 26t-26 64z" />
<glyph unicode="&#xe5;" horiz-adv-x="1157" d="M119 227v11q3 131 100 194q106 67 246 70q160 3 280 -47q-18 290 -278 290q-57 0 -132 -30.5t-132 -77.5h-6q57 88 155.5 145.5t202.5 57.5q162 0 258 -102t96 -302v-354l131 -76v-6h-295v152q-35 -58 -102 -105q-92 -65 -225 -65q-124 -3 -213 65q-86 71 -86 180z M279 231q1 -78 54.5 -124t133.5 -46q102 0 182 68q93 78 96 246v24q-466 88 -466 -163v-5zM375 1143q0 62 44 106.5t107 44.5t107.5 -44.5t44.5 -106.5q0 -63 -44.5 -107.5t-107.5 -44.5t-107 44.5t-44 107.5zM438 1143q0 -36 26 -62t62 -26q35 0 61.5 26.5t26.5 61.5 q0 36 -26 62t-62 26q-37 0 -62.5 -25.5t-25.5 -62.5z" />
<glyph unicode="&#xe6;" horiz-adv-x="1683" d="M119 221v6q0 108 68.5 175.5t187.5 86.5q186 30 370 -36q-18 288 -278 288q-59 0 -133.5 -30t-130.5 -78h-6q57 88 155.5 145.5t202.5 57.5q205 0 289 -152q120 156 340 156q173 0 286 -113q115 -115 115 -297h-665q3 -49 10 -82q31 -133 120.5 -201.5t229.5 -68.5 q157 0 295 108h6q-58 -100 -158.5 -153t-216.5 -53q-136 0 -243.5 59t-163.5 162q-41 -92 -133 -154q-101 -70 -242 -70q-125 -3 -215 66q-87 66 -90 178zM279 225q1 -76 53.5 -121t130.5 -47q104 0 184 68q95 80 98 248v24q-466 88 -466 -164v-8zM922 512h501 q-6 109 -72.5 176.5t-170.5 67.5q-99 0 -169 -66t-89 -178z" />
<glyph unicode="&#xe7;" horiz-adv-x="1032" d="M100 399v21q0 178 136 299q139 121 337 121q151 0 328 -62v-211h-6q-45 101 -147 154.5t-224 34.5q-126 -21 -196 -131q-67 -107 -52 -244l3 -21q21 -127 116.5 -204.5t239.5 -77.5q157 0 295 108h6q-58 -100 -158.5 -153t-216.5 -53h-8l-25 -76q37 16 68 16q53 0 82 -26 t29 -68q0 -117 -248 -225h-8q93 81 108 157q21 103 -57 103q-19 0 -45 -13h-6l41 136q-173 21 -283 137q-109 115 -109 278z" />
<glyph unicode="&#xe8;" horiz-adv-x="1040" d="M100 399v21q0 179 123 299q124 121 316 121q173 0 286 -113q115 -115 115 -297h-666q1 -27 9 -80l6 -20q26 -116 119 -184t227 -68q157 0 295 108h6q-58 -100 -158.5 -153t-216.5 -53q-202 0 -332 118q-129 120 -129 301zM279 512h501q-6 109 -72.5 176.5t-170.5 67.5 q-99 0 -169 -66t-89 -178zM309 1253h215l88 -262h-6z" />
<glyph unicode="&#xe9;" horiz-adv-x="1040" d="M100 399v21q0 179 123 299q124 121 316 121q173 0 286 -113q115 -115 115 -297h-666q1 -27 9 -80l6 -20q26 -116 119 -184t227 -68q157 0 295 108h6q-58 -100 -158.5 -153t-216.5 -53q-202 0 -332 118q-129 120 -129 301zM279 512h501q-6 109 -72.5 176.5t-170.5 67.5 q-99 0 -169 -66t-89 -178zM426 991l88 262h215l-297 -262h-6z" />
<glyph unicode="&#xea;" horiz-adv-x="1040" d="M100 399v21q0 179 123 299q124 121 316 121q173 0 286 -113q115 -115 115 -297h-666q1 -27 9 -80l6 -20q26 -116 119 -184t227 -68q157 0 295 108h6q-58 -100 -158.5 -153t-216.5 -53q-202 0 -332 118q-129 120 -129 301zM260 991l266 262h9l266 -262h-6l-265 107 l-264 -107h-6zM279 512h501q-6 109 -72.5 176.5t-170.5 67.5q-99 0 -169 -66t-89 -178z" />
<glyph unicode="&#xeb;" horiz-adv-x="1040" d="M100 399v21q0 179 123 299q124 121 316 121q173 0 286 -113q115 -115 115 -297h-666q1 -27 9 -80l6 -20q26 -116 119 -184t227 -68q157 0 295 108h6q-58 -100 -158.5 -153t-216.5 -53q-202 0 -332 118q-129 120 -129 301zM254 1081q0 37 26 62.5t64 25.5q37 0 62.5 -25.5 t25.5 -62.5q0 -38 -25.5 -64t-62.5 -26q-38 0 -64 26t-26 64zM279 512h501q-6 109 -72.5 176.5t-170.5 67.5q-99 0 -169 -66t-89 -178zM639 1081q0 37 26 62.5t64 25.5q37 0 62.5 -25.5t25.5 -62.5q0 -38 -25.5 -64t-62.5 -26q-38 0 -64 26t-26 64z" />
<glyph unicode="&#xec;" horiz-adv-x="735" d="M133 1253h215l88 -262h-6zM186 0v6l131 76v655l-131 76v6h293l-2 -737l131 -76v-6h-422z" />
<glyph unicode="&#xed;" horiz-adv-x="681" d="M133 0v6l131 76v655l-131 76v6h293l-2 -737l131 -76v-6h-422zM227 991l88 262h215l-297 -262h-6z" />
<glyph unicode="&#xee;" horiz-adv-x="800" d="M133 991l266 262h9l266 -262h-6l-265 107l-264 -107h-6zM217 0v6l131 76v655l-131 76v6h293l-2 -737l131 -76v-6h-422z" />
<glyph unicode="&#xef;" horiz-adv-x="823" d="M133 1081q0 37 26 62.5t64 25.5q37 0 62.5 -25.5t25.5 -62.5q0 -38 -25.5 -64t-62.5 -26q-38 0 -64 26t-26 64zM233 0v6l132 76v655l-132 76v6h293l-2 -737l131 -76v-6h-422zM518 1081q0 37 26 62.5t64 25.5q37 0 62.5 -25.5t25.5 -62.5q0 -38 -25.5 -64t-62.5 -26 q-38 0 -64 26t-26 64z" />
<glyph unicode="&#xf0;" horiz-adv-x="1140" d="M100 399v21q0 180 121 301q122 119 322 119q187 0 305 -121q-55 210 -221 403l-293 -170v111l227 133q-177 180 -325 242v16q79 -20 187 -78t210 -139l282 164v-111l-206 -121q331 -310 331 -690v-12q-3 -224 -135 -356q-131 -131 -346 -131q-203 0 -330 118 q-129 120 -129 301zM272 399q0 -153 84 -246.5t219 -93.5q129 0 207 84q95 95 95 254v23q0 164 -97 258q-79 82 -205 82q-135 0 -219 -93.5t-84 -246.5v-21z" />
<glyph unicode="&#xf1;" horiz-adv-x="1359" d="M129 0v6l131 76v655l-131 76v6h283v-149q40 60 106 102q103 68 234 68q159 0 259.5 -95t100.5 -262v-401l129 -76v-6h-293v518q0 117 -67 178.5t-172 61.5q-111 -3 -189 -66q-100 -84 -100 -262v-348l131 -76v-6h-422zM446 995q83 205 271 146q58 -21 127 -15q71 6 92 50 l8 -5q-86 -206 -270 -145q-63 22 -129 14q-71 -6 -92 -49z" />
<glyph unicode="&#xf2;" horiz-adv-x="1148" d="M100 399v21q0 178 136 299q139 121 337 121q199 0 338 -121q138 -120 138 -299v-21q0 -181 -138 -301q-136 -118 -338 -118q-199 0 -337 120q-136 121 -136 299zM272 399q0 -152 83.5 -246t217.5 -94q136 0 220 93.5t84 246.5v21q0 153 -84 246.5t-220 93.5 q-134 0 -217.5 -94t-83.5 -246v-21zM360 1253h215l89 -262h-7z" />
<glyph unicode="&#xf3;" horiz-adv-x="1148" d="M100 399v21q0 178 136 299q139 121 337 121q199 0 338 -121q138 -120 138 -299v-21q0 -181 -138 -301q-136 -118 -338 -118q-199 0 -337 120q-136 121 -136 299zM272 399q0 -152 83.5 -246t217.5 -94q136 0 220 93.5t84 246.5v21q0 153 -84 246.5t-220 93.5 q-134 0 -217.5 -94t-83.5 -246v-21zM481 987l88 262h215l-297 -262h-6z" />
<glyph unicode="&#xf4;" horiz-adv-x="1148" d="M100 399v21q0 178 136 299q139 121 337 121q199 0 338 -121q138 -120 138 -299v-21q0 -181 -138 -301q-136 -118 -338 -118q-199 0 -337 120q-136 121 -136 299zM272 399q0 -152 83.5 -246t217.5 -94q136 0 220 93.5t84 246.5v21q0 153 -84 246.5t-220 93.5 q-134 0 -217.5 -94t-83.5 -246v-21zM303 991l266 262h9l266 -262h-6l-265 107l-264 -107h-6z" />
<glyph unicode="&#xf5;" horiz-adv-x="1148" d="M100 399v21q0 178 136 299q139 121 337 121q199 0 338 -121q138 -120 138 -299v-21q0 -181 -138 -301q-136 -118 -338 -118q-199 0 -337 120q-136 121 -136 299zM272 399q0 -152 83.5 -246t217.5 -94q136 0 220 93.5t84 246.5v21q0 153 -84 246.5t-220 93.5 q-134 0 -217.5 -94t-83.5 -246v-21zM332 995q83 204 270 146q58 -21 127 -15q71 6 92 50l8 -5q-86 -206 -270 -145q-63 22 -129 14q-71 -6 -92 -49z" />
<glyph unicode="&#xf6;" horiz-adv-x="1148" d="M100 399v21q0 178 136 299q139 121 337 121q199 0 338 -121q138 -120 138 -299v-21q0 -181 -138 -301q-136 -118 -338 -118q-199 0 -337 120q-136 121 -136 299zM272 399q0 -152 83.5 -246t217.5 -94q136 0 220 93.5t84 246.5v21q0 153 -84 246.5t-220 93.5 q-134 0 -217.5 -94t-83.5 -246v-21zM293 1081q0 37 26 62.5t64 25.5q37 0 62.5 -25.5t25.5 -62.5q0 -38 -25.5 -64t-62.5 -26q-38 0 -64 26t-26 64zM678 1081q0 37 26 62.5t64 25.5q37 0 62.5 -25.5t25.5 -62.5q0 -38 -25.5 -64t-62.5 -26q-38 0 -64 26t-26 64z" />
<glyph unicode="&#xf7;" horiz-adv-x="962" d="M102 555v96h758v-96h-758zM387 299q0 41 29.5 70.5t72.5 29.5q39 0 69 -29.5t30 -70.5t-29 -70.5t-70 -29.5q-43 0 -72.5 29.5t-29.5 70.5zM387 899q0 41 29.5 69.5t72.5 28.5q38 0 68.5 -30t30.5 -68q0 -41 -30 -71.5t-69 -30.5q-42 0 -72 30t-30 72z" />
<glyph unicode="&#xf8;" horiz-adv-x="1148" d="M100 0l117 119q-117 114 -117 280v21q0 178 136 299q139 121 337 121q158 0 283 -78l57 57h136l-117 -119q117 -114 117 -280v-21q0 -181 -138 -301q-136 -118 -338 -118q-156 0 -280 77l-57 -57h-136zM272 399q0 -107 41 -184l463 467q-84 78 -203 78q-134 0 -217.5 -94 t-83.5 -246v-21zM373 137q84 -78 200 -78q136 0 220 93.5t84 246.5v21q0 107 -41 184z" />
<glyph unicode="&#xf9;" horiz-adv-x="1325" d="M119 813v6h295l-2 -518q0 -117 63.5 -179.5t161.5 -60.5q102 3 180 66q101 85 101 262v348l-132 76v6h291v-737l131 -76v-6h-282v150q-44 -64 -111 -105q-95 -65 -223 -65q-152 0 -247 94t-95 262v401zM393 1253h215l88 -262h-6z" />
<glyph unicode="&#xfa;" horiz-adv-x="1325" d="M119 813v6h295l-2 -518q0 -117 63.5 -179.5t161.5 -60.5q102 3 180 66q101 85 101 262v348l-132 76v6h291v-737l131 -76v-6h-282v150q-44 -64 -111 -105q-95 -65 -223 -65q-152 0 -247 94t-95 262v401zM541 991l88 262h215l-297 -262h-6z" />
<glyph unicode="&#xfb;" horiz-adv-x="1325" d="M119 813v6h295l-2 -518q0 -117 63.5 -179.5t161.5 -60.5q102 3 180 66q101 85 101 262v348l-132 76v6h291v-737l131 -76v-6h-282v150q-44 -64 -111 -105q-95 -65 -223 -65q-152 0 -247 94t-95 262v401zM354 991l267 262h8l266 -262h-6l-264 107l-265 -107h-6z" />
<glyph unicode="&#xfc;" horiz-adv-x="1325" d="M119 813v6h295l-2 -518q0 -117 63.5 -179.5t161.5 -60.5q102 3 180 66q101 85 101 262v348l-132 76v6h291v-737l131 -76v-6h-282v150q-44 -64 -111 -105q-95 -65 -223 -65q-152 0 -247 94t-95 262v401zM369 1081q0 37 26 62.5t64 25.5q37 0 62.5 -25.5t25.5 -62.5 q0 -38 -25.5 -64t-62.5 -26q-38 0 -64 26t-26 64zM754 1081q0 37 26 62.5t64 25.5q37 0 62.5 -25.5t25.5 -62.5q0 -38 -25.5 -64t-62.5 -26q-38 0 -64 26t-26 64z" />
<glyph unicode="&#xfd;" horiz-adv-x="1087" d="M37 813v6h268l279 -616l245 534l-129 76v6h353v-6l-129 -76l-314 -676q-157 -339 -258 -464q-102 -129 -207 -129q-28 0 -71 16v203q50 -33 108 -33q88 0 155 78.5t157 271.5l-326 733zM469 995l88 262h215l-297 -262h-6z" />
<glyph unicode="&#xfe;" horiz-adv-x="1298" d="M133 -506l131 76v1782l-131 75v7h291v-756q113 162 336 162q195 0 317 -119q123 -120 123 -301v-21q0 -181 -123 -301q-121 -118 -317 -118q-224 0 -336 161v-571l164 -76v-6h-455v6zM424 397q0 -161 92 -256q82 -82 209 -82q135 0 219 93.5t84 246.5v21q0 153 -84 246.5 t-219 93.5q-125 0 -205 -80q-96 -93 -96 -260v-23z" />
<glyph unicode="&#xff;" horiz-adv-x="1087" d="M37 813v6h268l279 -616l245 534l-129 76v6h353v-6l-129 -76l-314 -676q-157 -339 -258 -464q-102 -129 -207 -129q-28 0 -71 16v203q50 -33 108 -33q88 0 155 78.5t157 271.5l-326 733zM279 1081q0 37 26 62.5t64 25.5q37 0 62.5 -25.5t25.5 -62.5q0 -38 -25.5 -64 t-62.5 -26q-38 0 -64 26t-26 64zM664 1081q0 37 26 62.5t64 25.5q37 0 62.5 -25.5t25.5 -62.5q0 -38 -25.5 -64t-62.5 -26q-38 0 -64 26t-26 64z" />
<glyph unicode="&#x152;" horiz-adv-x="2177" d="M133 700v33q0 216 115 381q113 161 289 240.5t395 79.5h1110v-287h-6l-105 190h-669v-542h516l102 155h6v-407h-6l-102 155h-516v-532q0 -70 69 -70h619l127 211h6v-307h-1151q-209 0 -391 78q-180 77 -293 239q-115 165 -115 383zM334 696q0 -276 170 -440 q171 -160 428 -160h145v1241h-145q-261 0 -428 -161q-170 -164 -170 -439v-41z" />
<glyph unicode="&#x153;" horiz-adv-x="1814" d="M100 399v21q0 178 136 299q139 121 337 121q251 0 383 -176q120 176 359 176q174 0 287 -113q114 -114 114 -297h-665q0 -48 12 -98q26 -116 120 -185t228 -69q155 0 293 108h6q-56 -98 -157 -152t-216 -54q-254 0 -379 180q-60 -85 -162 -132.5t-223 -47.5 q-199 0 -337 120q-136 121 -136 299zM272 399q0 -152 83.5 -246t217.5 -94q136 0 220 93.5t84 246.5v21q0 153 -84 246.5t-220 93.5q-134 0 -217.5 -94t-83.5 -246v-21zM1053 512h501q-6 109 -72.5 176.5t-170.5 67.5q-99 0 -169 -66t-89 -178z" />
<glyph unicode="&#x178;" horiz-adv-x="1490" d="M41 1427v7h475v-7l-133 -90l412 -610l397 610l-133 90v7h391v-7l-131 -90l-475 -725v-516l133 -90v-6h-451v6l133 90v512l-487 731zM475 1626q0 37 26 62.5t64 25.5q37 0 62.5 -25.5t25.5 -62.5q0 -38 -25.5 -64t-62.5 -26q-38 0 -64 26t-26 64zM860 1626q0 37 26 62.5 t64 25.5q37 0 62.5 -25.5t25.5 -62.5q0 -38 -25.5 -64t-62.5 -26q-38 0 -64 26t-26 64z" />
<glyph unicode="&#x2c6;" horiz-adv-x="745" d="M102 1536l267 262h8l266 -262h-6l-264 106l-264 -106h-7z" />
<glyph unicode="&#x2dc;" horiz-adv-x="702" d="M102 1520q83 207 271 145q56 -20 127 -14q72 9 92 51l8 -4q-83 -206 -270 -148q-65 23 -129 15q-71 -6 -92 -49z" />
<glyph unicode="&#x2000;" horiz-adv-x="919" />
<glyph unicode="&#x2001;" horiz-adv-x="1839" />
<glyph unicode="&#x2002;" horiz-adv-x="919" />
<glyph unicode="&#x2003;" horiz-adv-x="1839" />
<glyph unicode="&#x2004;" horiz-adv-x="613" />
<glyph unicode="&#x2005;" horiz-adv-x="459" />
<glyph unicode="&#x2006;" horiz-adv-x="306" />
<glyph unicode="&#x2007;" horiz-adv-x="306" />
<glyph unicode="&#x2008;" horiz-adv-x="229" />
<glyph unicode="&#x2009;" horiz-adv-x="367" />
<glyph unicode="&#x200a;" horiz-adv-x="102" />
<glyph unicode="&#x2010;" horiz-adv-x="647" d="M102 438v94h443v-94h-443z" />
<glyph unicode="&#x2011;" horiz-adv-x="647" d="M102 438v94h443v-94h-443z" />
<glyph unicode="&#x2012;" horiz-adv-x="647" d="M102 438v94h443v-94h-443z" />
<glyph unicode="&#x2013;" horiz-adv-x="1032" d="M102 438v94h828v-94h-828z" />
<glyph unicode="&#x2014;" horiz-adv-x="1310" d="M102 438v94h1106v-94h-1106z" />
<glyph unicode="&#x2018;" horiz-adv-x="464" d="M102 1157q0 192 260 297v-6q-156 -120 -159 -254q8 8 30 8q43 0 71 -26.5t28 -67.5t-28 -68.5t-71 -27.5q-64 0 -97.5 40.5t-33.5 104.5z" />
<glyph unicode="&#x2019;" horiz-adv-x="464" d="M102 1012v6q157 121 160 252q-12 -6 -29 -6q-44 0 -71 26t-27 68q0 39 28 67.5t70 28.5q61 0 95 -41t34 -104q0 -94 -68.5 -172t-191.5 -125z" />
<glyph unicode="&#x201a;" horiz-adv-x="464" d="M102 -260q157 121 160 252q-12 -6 -29 -6q-44 0 -71 26t-27 68q0 39 28 67.5t70 28.5q61 0 95 -41t34 -104q0 -94 -68.5 -172t-191.5 -125v6z" />
<glyph unicode="&#x201c;" horiz-adv-x="819" d="M102 1157q0 192 260 297v-6q-156 -120 -159 -254q8 8 30 8q43 0 71 -26.5t28 -67.5t-28 -68.5t-71 -27.5q-64 0 -97.5 40.5t-33.5 104.5zM455 1157q0 192 260 297v-6q-157 -121 -160 -254q8 8 31 8q43 0 70.5 -26.5t27.5 -67.5t-27.5 -68.5t-70.5 -27.5q-64 0 -97.5 40.5 t-33.5 104.5z" />
<glyph unicode="&#x201d;" horiz-adv-x="819" d="M102 1012v6q157 121 160 252q-12 -6 -29 -6q-44 0 -71 26t-27 68q0 39 28 67.5t70 28.5q61 0 95 -41t34 -104q0 -94 -68.5 -172t-191.5 -125zM455 1012v6q156 120 159 252q-12 -6 -28 -6q-44 0 -71.5 26.5t-27.5 67.5q0 39 28.5 67.5t70.5 28.5q61 0 95 -41t34 -104 q0 -94 -68.5 -172t-191.5 -125z" />
<glyph unicode="&#x201e;" horiz-adv-x="819" d="M102 -260q157 121 160 252q-12 -6 -29 -6q-44 0 -71 26t-27 68q0 39 28 67.5t70 28.5q61 0 95 -41t34 -104q0 -94 -68.5 -172t-191.5 -125v6zM455 -260q156 120 159 252q-12 -6 -28 -6q-44 0 -71.5 26.5t-27.5 67.5q0 39 28.5 67.5t70.5 28.5q61 0 95 -41t34 -104 q0 -94 -68.5 -172t-191.5 -125v6z" />
<glyph unicode="&#x2022;" horiz-adv-x="675" d="M102 623q0 95 68 163q70 70 168 70q99 0 166 -70q69 -66 69 -163q0 -98 -68.5 -167t-166.5 -69t-167 69t-69 167z" />
<glyph unicode="&#x2026;" horiz-adv-x="1277" d="M102 80q0 41 30 70.5t73 29.5q41 0 69.5 -29.5t28.5 -70.5t-28.5 -70.5t-69.5 -29.5q-43 0 -73 29.5t-30 70.5zM539 80q0 41 29.5 70.5t72.5 29.5q41 0 69.5 -29.5t28.5 -70.5t-28.5 -70.5t-69.5 -29.5q-43 0 -72.5 29.5t-29.5 70.5zM975 80q0 41 29.5 70.5t72.5 29.5 q41 0 70 -29.5t29 -70.5t-29 -70.5t-70 -29.5q-43 0 -72.5 29.5t-29.5 70.5z" />
<glyph unicode="&#x202f;" horiz-adv-x="367" />
<glyph unicode="&#x2039;" horiz-adv-x="679" d="M102 514l476 438v-6l-279 -432l279 -430v-6z" />
<glyph unicode="&#x203a;" horiz-adv-x="679" d="M102 78v6l279 430l-279 432v6l476 -438z" />
<glyph unicode="&#x205f;" horiz-adv-x="459" />
<glyph unicode="&#x20ac;" horiz-adv-x="1632" d="M102 580v51h168q0 7 -1 34t-1 35v33q0 48 2 62h-168v51h174q40 272 254 440q210 168 500 168q242 0 500 -98v-279h-6q-183 281 -494 281q-223 0 -373 -144q-150 -141 -180 -368h563l-12 -51h-557q-2 -12 -2 -58v-41q0 -51 2 -65h520l-12 -51h-502q35 -227 185 -365 q151 -139 368 -139q312 0 494 280h6v-278q-258 -98 -500 -98q-287 0 -498 163q-209 165 -253 437h-177z" />
<glyph unicode="&#x2122;" horiz-adv-x="1699" d="M102 1229v205h572v-205h-6l-74 137h-137v-418l118 -61v-6h-372v6l119 61v418h-140l-73 -137h-7zM709 881v6l118 61v418l-118 61v7h278l176 -367l170 367h264v-7l-118 -61v-418l118 -61v-6h-370v6l116 61v340l-180 -385h-73l-183 387v-342l119 -61v-6h-317z" />
<glyph unicode="&#x25fc;" horiz-adv-x="819" d="M0 0v819h819v-819h-819z" />
<glyph unicode="&#xfb01;" horiz-adv-x="1472" d="M119 0v6l131 76v657h-115l115 80v92q0 239 117 389q121 154 342 154q59 0 141 -18v-230h-6q-58 150 -193 150q-107 0 -172 -74t-65 -227v-236h803l-3 -737l132 -76v-6h-422v6l131 76v657h-641v-657l164 -76v-6h-459z" />
<glyph unicode="&#xfb02;" horiz-adv-x="1462" d="M119 0v6l131 76v657h-115l115 80v92q0 239 117 389q121 154 342 154q216 0 503 -55v-1317l129 -76v-6h-419v6l131 76v1175q-273 99 -402 99q-107 0 -172 -74t-65 -227v-236h270l-115 -80h-155v-657l164 -76v-6h-459z" />
</font>
</defs>
</svg>
